# This file uses centimeters as units for non-parametric coordinates.

mtllib bi.mtl
g default
v 14.340973 1.713131 -33.784695
v 14.360443 1.694271 -33.784843
v 17.711403 1.714481 -33.813751
v 17.692757 1.695602 -33.813576
v 14.335899 -0.037094 -32.481976
v 14.335167 1.714378 -32.483650
v 14.370125 1.718296 -28.432077
v 14.370857 -0.033184 -28.430401
v 17.739094 1.700787 -28.443373
v 14.406769 1.699455 -28.414644
v 14.387306 1.718323 -28.414495
v 14.341705 -0.038345 -33.783020
v 17.712139 -0.036995 -33.812077
v 14.361160 -0.019463 -33.783207
v 17.693481 -0.018127 -33.811935
v 17.739811 -0.012943 -28.441734
v 14.388031 -0.033157 -28.412823
v 14.407486 -0.014282 -28.413006
v 14.534576 1.610378 -28.642536
v 17.607452 1.611599 -28.669025
v 17.607918 1.589703 -28.615709
v 14.535042 1.588474 -28.589216
v 17.757732 1.719666 -28.443550
v 14.352943 -0.054836 -32.482105
v 14.341866 -0.056068 -33.765163
v 14.324829 -0.038334 -33.765034
v 14.421448 1.581734 -35.553211
v 14.481071 1.588402 -28.642052
v 14.459206 1.535271 -28.641811
v 14.399574 1.528603 -35.552975
v 17.740463 1.715744 -32.513004
v 17.775417 1.719658 -28.461433
v 17.757572 1.737396 -28.461294
v 17.722618 1.733486 -32.512871
v 17.601524 0.059643 -35.632240
v 17.623871 0.059708 -35.579365
v 17.623260 1.529884 -35.580769
v 17.600906 1.529831 -35.633648
v 14.387894 -0.050926 -28.430531
v 14.352188 1.732136 -32.483814
v 14.387146 1.736050 -28.432238
v 17.683495 0.066376 -28.668200
v 17.661457 1.536606 -28.616121
v 17.682884 1.536560 -28.669603
v 17.729393 1.714500 -33.796059
v 17.730125 -0.036968 -33.794388
v 14.535866 0.065193 -28.565981
v 14.535248 1.535378 -28.567385
v 17.608128 1.536606 -28.593876
v 17.608738 0.066418 -28.592468
v 17.711548 1.732243 -33.795921
v 14.341118 1.730900 -33.766869
v 14.400192 0.058422 -35.551575
v 14.459816 0.065090 -28.640408
v 17.758469 -0.031815 -28.441875
v 17.758324 -0.049576 -28.459587
v 17.776150 -0.031826 -28.459755
v 17.660969 1.589676 -28.669464
v 17.601345 1.583000 -35.580627
v 14.376816 -0.052158 -29.713703
v 17.747246 -0.050816 -29.742758
v 17.712292 -0.054726 -33.794220
v 17.651619 1.579948 -28.626038
v 14.482170 0.065151 -28.587301
v 14.481552 1.535336 -28.588707
v 17.652264 0.023045 -28.624554
v 17.661629 0.013245 -28.667959
v 17.608128 -0.008785 -28.667477
v 17.608578 0.013275 -28.614202
v 17.662067 0.066422 -28.614716
v 14.491173 1.578693 -28.598797
v 14.474945 0.058376 -35.627300
v 14.421623 0.058380 -35.604828
v 14.431458 0.015026 -35.595139
v 14.475159 0.005272 -35.605236
v 14.474335 1.528561 -35.628708
v 14.474503 1.581703 -35.606743
v 14.430809 1.571934 -35.596622
v 14.421013 1.528557 -35.606228
v 17.591248 1.573196 -35.623867
v 14.422104 0.005306 -35.551712
v 17.547829 1.604927 -35.580185
v 17.547821 0.059601 -35.653793
v 17.547207 1.529781 -35.655193
v 17.741196 -0.035736 -32.511333
v 17.723370 -0.053493 -32.511162
v 14.535248 -0.010010 -28.640987
v 14.481735 0.011978 -28.640545
v 14.491829 0.021782 -28.597305
v 14.535706 0.012047 -28.587711
v 14.474953 1.603703 -35.553699
v 17.547375 1.582932 -35.633232
v 17.591896 0.016289 -35.622379
v 17.548035 0.006500 -35.631725
v 17.548500 -0.015457 -35.578644
v 17.602005 0.006573 -35.579121
v 14.475624 -0.016682 -35.552155
v 14.324104 1.713142 -33.766701
vt 0.775193 0.897964
vt 0.774098 0.898324
vt 0.775680 0.960602
vt 0.774585 0.959524
vt 0.982762 0.489397
vt 0.982762 0.335482
vt 0.626908 0.335482
vt 0.626908 0.489397
vt 0.675966 0.960243
vt 0.675480 0.899042
vt 0.674384 0.897964
vt 0.797105 0.918804
vt 0.797470 0.918564
vt 0.796983 0.894132
vt 0.797470 0.894611
vt 0.872472 0.894491
vt 0.872472 0.918325
vt 0.872838 0.894132
vt 0.872959 0.918804
vt 0.653446 0.979884
vt 0.655029 0.980124
vt 0.658680 0.900839
vt 0.657098 0.900958
vt 0.870159 0.023342
vt 0.515630 0.023342
vt 0.515630 0.021785
vt 0.628734 0.021785
vt 0.657220 0.899282
vt 0.657828 0.897485
vt 0.524030 0.897006
vt 0.524638 0.898803
vt 0.986170 0.322188
vt 0.986170 0.320631
vt 0.628856 0.320631
vt 0.628613 0.322188
vt 0.678279 0.847528
vt 0.678279 0.880359
vt 0.679497 0.880359
vt 0.679497 0.847528
vt 0.986170 0.021785
vt 0.986170 0.023342
vt 0.628856 0.023342
vt 0.524030 0.847528
vt 0.522812 0.880359
vt 0.524030 0.880359
vt 0.514291 0.335482
vt 0.514291 0.489397
vt 0.511613 0.489397
vt 0.511613 0.335482
vt 0.977162 0.880359
vt 0.977162 0.847528
vt 0.908627 0.847528
vt 0.908627 0.880359
vt 0.514048 0.320631
vt 0.515630 0.320631
vt 0.514048 0.023342
vt 0.906070 0.880359
vt 0.906070 0.847528
vt 0.751942 0.847528
vt 0.751942 0.880359
vt 0.987752 0.320631
vt 0.987752 0.023342
vt 0.985440 0.335482
vt 0.985440 0.489397
vt 0.654055 0.983358
vt 0.653568 0.981561
vt 0.520865 0.981082
vt 0.520256 0.982759
vt 0.870159 0.320631
vt 0.654785 0.981322
vt 0.655759 0.982399
vt 0.907409 0.847528
vt 0.907409 0.880359
vt 0.515630 0.322188
vt 0.656611 0.980603
vt 0.658437 0.899641
vt 0.659533 0.898563
vt 0.523056 0.900240
vt 0.521473 0.899641
vt 0.522325 0.897964
vt 0.523299 0.898922
vt 0.519647 0.980723
vt 0.518552 0.981801
vt 0.520986 0.979285
vt 0.680836 0.880359
vt 0.680836 0.847528
vt 0.628734 0.322188
vt 0.524638 0.900479
vt 0.519404 0.979525
vt 0.660263 0.900360
vt 0.978501 0.880359
vt 0.978501 0.847528
vt 0.750603 0.847528
vt 0.750603 0.880359
vt 0.517821 0.979884
vt 0.749386 0.880359
vt 0.749386 0.847528
vt 0.674871 0.960602
vt 0.522812 0.847528
vt 0.775193 0.897964
vt 0.775680 0.960602
vt 0.774098 0.898324
vt 0.775680 0.960602
vt 0.774585 0.959524
vt 0.774098 0.898324
vt 0.675966 0.960243
vt 0.674384 0.897964
vt 0.675480 0.899042
vt 0.797105 0.918804
vt 0.796983 0.894132
vt 0.797470 0.918564
vt 0.796983 0.894132
vt 0.797470 0.894611
vt 0.797470 0.918564
vt 0.872472 0.918325
vt 0.872472 0.894491
vt 0.872838 0.894132
vt 0.986170 0.023342
vt 0.515630 0.023342
vt 0.515630 0.023342
vt 0.986170 0.320631
vt 0.982762 0.489397
vt 0.982762 0.335482
vt 0.870159 0.023342
vt 0.515630 0.023342
vt 0.515630 0.320631
vt 0.654785 0.981322
vt 0.653568 0.981561
vt 0.653446 0.979884
vt 0.655029 0.980124
vt 0.986170 0.023342
vt 0.870159 0.023342
vt 0.986170 0.320631
vt 0.655759 0.982399
vt 0.654785 0.981322
vt 0.655029 0.980124
vt 0.521473 0.899641
vt 0.523056 0.900240
vt 0.523299 0.898922
vt 0.522325 0.897964
vt 0.524638 0.898803
vt 0.524030 0.897006
vt 0.774585 0.959524
vt 0.675966 0.960243
vt 0.675480 0.899042
vt 0.774098 0.898324
vt 0.986170 0.023342
vt 0.986170 0.021785
vt 0.628734 0.021785
vt 0.514048 0.023342
vt 0.986170 0.320631
vt 0.986170 0.322188
vt 0.870159 0.320631
vt 0.986170 0.322188
vt 0.986170 0.320631
vt 0.515630 0.322188
vt 0.514048 0.320631
vt 0.515630 0.320631
vt 0.515630 0.320631
vt 0.514048 0.320631
vt 0.514048 0.023342
vt 0.658680 0.900839
vt 0.657098 0.900958
vt 0.657220 0.899282
vt 0.658437 0.899641
vt 0.523299 0.898922
vt 0.523056 0.900240
vt 0.523299 0.898922
vt 0.522325 0.897964
vt 0.523056 0.900240
vt 0.521473 0.899641
vt 0.658680 0.900839
vt 0.658437 0.899641
vt 0.659533 0.898563
vt 0.655759 0.982399
vt 0.654055 0.983358
vt 0.653568 0.981561
vt 0.654785 0.981322
vt 0.656611 0.980603
vt 0.520865 0.981082
vt 0.519647 0.980723
vt 0.519404 0.979525
vt 0.520986 0.979285
vt 0.515630 0.322188
vt 0.515630 0.320631
vt 0.870159 0.320631
vt 0.655029 0.980124
vt 0.653446 0.979884
vt 0.657098 0.900958
vt 0.658680 0.900839
vt 0.520986 0.979285
vt 0.519404 0.979525
vt 0.524638 0.900479
vt 0.520865 0.981082
vt 0.520256 0.982759
vt 0.518552 0.981801
vt 0.519647 0.980723
vt 0.653446 0.979884
vt 0.653568 0.981561
vt 0.520865 0.981082
vt 0.520986 0.979285
vt 0.655029 0.980124
vt 0.658680 0.900839
vt 0.872472 0.894491
vt 0.872472 0.918325
vt 0.797470 0.918564
vt 0.797470 0.894611
vt 0.519404 0.979525
vt 0.657220 0.899282
vt 0.657098 0.900958
vt 0.524638 0.900479
vt 0.524638 0.898803
vt 0.656611 0.980603
vt 0.660263 0.900360
vt 0.517821 0.979884
vt 0.524638 0.900479
vt 0.524638 0.898803
vt 0.657828 0.897485
vt 0.657220 0.899282
vt 0.524638 0.898803
vt 0.524030 0.897006
vt 0.514291 0.335482
vt 0.514291 0.489397
vt 0.626908 0.335482
vt 0.626908 0.489397
vt 0.626908 0.335482
vt 0.626908 0.489397
vt 0.982762 0.489397
vt 0.982762 0.335482
vt 0.987752 0.320631
vt 0.987752 0.023342
vt 0.986170 0.023342
vt 0.659533 0.898563
vt 0.658437 0.899641
vt 0.657220 0.899282
vt 0.657828 0.897485
vt 0.985440 0.489397
vt 0.985440 0.335482
vt 0.653568 0.981561
vt 0.654055 0.983358
vt 0.520256 0.982759
vt 0.520865 0.981082
vt 0.660263 0.900360
vt 0.653446 0.979884
vt 0.520986 0.979285
vt 0.524638 0.900479
vt 0.657098 0.900958
vt 0.519647 0.980723
vt 0.518552 0.981801
vt 0.519404 0.979525
vt 0.511613 0.335482
vt 0.511613 0.489397
vt 0.514291 0.489397
vt 0.514291 0.335482
vt 0.986170 0.021785
vt 0.986170 0.023342
vt 0.987752 0.023342
vt 0.523056 0.900240
vt 0.515630 0.023342
vt 0.628734 0.021785
vt 0.515630 0.021785
vt 0.987752 0.320631
vt 0.515630 0.023342
vt 0.515630 0.021785
vt 0.675966 0.960243
vt 0.674871 0.960602
vt 0.674384 0.897964
vt 0.515630 0.320631
vt 0.514048 0.023342
vt 0.872472 0.918325
vt 0.872838 0.894132
vt 0.872959 0.918804
vt 0.523299 0.898922
vt 0.521473 0.899641
vt 0.517821 0.979884
vn 0.008624 0.000956 0.999962
vn 0.006965 0.553007 0.833147
vn 0.008621 0.001002 0.999962
vn 0.006965 0.553007 0.833147
vn 0.006941 0.556481 0.830831
vn 0.008621 0.001002 0.999962
vn 0.924440 0.000027 -0.381327
vn 0.924444 0.000027 -0.381317
vn 0.999963 0.000410 -0.008628
vn 0.999963 0.000410 -0.008628
vn -0.000439 0.999990 -0.004554
vn -0.007403 0.551407 -0.834204
vn -0.008610 -0.000960 -0.999962
vn 0.008611 0.001059 0.999962
vn 0.008626 0.000960 0.999962
vn 0.007405 -0.551352 0.834240
vn 0.008626 0.000960 0.999962
vn 0.007399 -0.554864 0.831908
vn 0.007405 -0.551352 0.834240
vn 0.000378 -0.999996 -0.002630
vn -0.008620 -0.000850 -0.999963
vn -0.006962 -0.552932 -0.833198
vn 0.008704 0.000943 0.999962
vn -0.549976 0.000555 0.835180
vn 0.008636 0.000978 0.999962
vn -0.549976 0.000555 0.835180
vn -0.550022 0.000584 0.835150
vn 0.008636 0.000978 0.999962
vn -0.564358 -0.001045 -0.825530
vn -0.564316 -0.001042 -0.825558
vn -0.008639 -0.000983 -0.999962
vn -0.564316 -0.001042 -0.825558
vn -0.008528 -0.000980 -0.999963
vn -0.008639 -0.000983 -0.999962
vn -0.179127 -0.967923 -0.176179
vn -0.177124 -0.696945 -0.694906
vn 0.165682 -0.696801 -0.697867
vn 0.176844 -0.967780 -0.179244
vn 0.008626 0.000966 0.999962
vn 0.008637 0.000913 0.999962
vn 0.560901 0.001031 0.827882
vn 0.008637 0.000913 0.999962
vn 0.560920 0.000986 0.827870
vn 0.560901 0.001031 0.827882
vn 0.999880 0.000403 -0.015473
vn 0.546524 -0.000589 -0.837443
vn -0.008641 -0.000980 -0.999962
vn -0.000439 0.999990 -0.004554
vn 0.006941 0.556481 0.830831
vn 0.006965 0.553007 0.833147
vn -0.007403 0.551407 -0.834204
vn 0.721211 0.692681 -0.006889
vn 0.702905 0.673418 0.228984
vn 0.702093 0.672603 0.233819
vn 0.721211 0.692681 -0.006889
vn -0.564316 -0.001042 -0.825558
vn -0.564358 -0.001045 -0.825530
vn -0.550022 0.000584 0.835150
vn -0.549976 0.000555 0.835180
vn 0.694736 -0.697047 -0.177389
vn 0.918910 -0.358903 -0.163686
vn 0.921661 -0.358310 0.148847
vn 0.794148 -0.598471 0.105648
vn -0.686109 -0.688349 -0.235435
vn -0.343088 -0.876313 -0.338180
vn -0.381130 -0.924512 0.004182
vn -0.705011 -0.709164 0.006770
vn -0.979211 -0.000214 0.202842
vn -0.979212 -0.000214 0.202841
vn -0.700623 0.000388 0.713532
vn -0.700621 0.000388 0.713533
vn 0.697826 0.671904 -0.248160
vn 0.467551 0.752297 -0.464161
vn 0.721211 0.692681 -0.006889
vn 0.721211 0.692681 -0.006889
vn -0.381130 -0.924512 0.004182
vn -0.343088 -0.876313 -0.338180
vn 0.347331 -0.872838 -0.342804
vn 0.392597 -0.919707 -0.002501
vn -1.000000 -0.000418 -0.000633
vn -0.928253 -0.000741 -0.371949
vn -0.982706 -0.000586 -0.185170
vn -0.920592 -0.000012 0.390525
vn -0.920591 -0.000012 0.390527
vn -0.701175 0.000389 0.712989
vn -0.701175 0.000389 0.712989
vn -0.200540 -0.001024 -0.979685
vn -0.200539 -0.001024 -0.979685
vn 0.183627 -0.000862 -0.982996
vn 0.183629 -0.000862 -0.982995
vn 0.006368 -0.708349 0.705834
vn -0.266967 -0.924281 0.272826
vn 0.279747 -0.921552 0.269228
vn 0.006368 -0.708349 0.705834
vn 0.979365 0.000216 -0.202100
vn 0.979366 0.000216 -0.202092
vn 0.982564 0.000585 0.185922
vn 0.982565 0.000585 0.185917
vn -0.266967 -0.924281 0.272826
vn -0.381130 -0.924512 0.004182
vn 0.392597 -0.919707 -0.002501
vn 0.279747 -0.921552 0.269228
vn -0.247245 0.685131 -0.685176
vn -0.463342 0.758772 -0.457799
vn 0.467551 0.752297 -0.464161
vn 0.241371 0.684133 -0.688260
vn -0.710994 -0.000977 -0.703198
vn -0.710994 -0.000977 -0.703198
vn -0.710994 -0.000977 -0.703198
vn -0.710994 -0.000977 -0.703198
vn -0.921296 -0.359672 -0.147815
vn -0.697115 -0.697623 -0.165384
vn -0.694093 -0.697251 0.179098
vn -0.918669 -0.359070 0.164670
vn -0.000407 0.999999 -0.000961
vn -0.000407 0.999999 -0.000962
vn -0.000407 0.999999 -0.000962
vn -0.000407 0.999999 -0.000961
vn -0.697115 -0.697623 -0.165384
vn -0.581607 -0.579119 -0.571274
vn -0.177124 -0.696945 -0.694906
vn -0.179127 -0.967923 -0.176179
vn -0.921296 -0.359672 -0.147815
vn -0.665803 -0.355369 -0.656063
vn -0.581607 -0.579119 -0.571274
vn -0.697115 -0.697623 -0.165384
vn 0.183629 -0.000862 -0.982995
vn 0.183627 -0.000862 -0.982996
vn 0.699865 -0.000390 -0.714275
vn 0.699853 -0.000390 -0.714286
vn -0.582197 0.577327 -0.572487
vn -0.697951 0.696438 -0.166849
vn -0.180268 0.967306 -0.178387
vn -0.177821 0.695183 -0.696491
vn -0.000408 0.999999 -0.000961
vn -0.000407 0.999999 -0.000961
vn -0.000407 0.999999 -0.000961
vn -0.000408 0.999999 -0.000961
vn -0.705054 -0.709121 0.006774
vn -0.705011 -0.709164 0.006770
vn -0.381130 -0.924512 0.004182
vn -0.266967 -0.924281 0.272826
vn -0.666091 0.353558 -0.656749
vn -0.582197 0.577327 -0.572487
vn -0.177821 0.695183 -0.696491
vn -0.163830 0.357452 -0.919450
vn 0.572168 -0.578649 -0.581196
vn 0.654684 -0.354805 -0.667460
vn 0.918910 -0.358903 -0.163686
vn 0.694736 -0.697047 -0.177389
vn 0.177050 0.697312 0.694557
vn 0.163358 0.361205 0.918066
vn 0.666365 0.354919 0.655737
vn 0.581183 0.578346 0.572488
vn 0.164665 -0.359173 0.918630
vn 0.165318 -0.691768 0.702941
vn 0.611891 -0.488898 0.621746
vn 0.666665 -0.353123 0.656400
vn -0.918669 -0.359070 0.164670
vn -0.694093 -0.697251 0.179098
vn -0.571105 -0.577496 0.583384
vn -0.654932 -0.353686 0.667810
vn 0.697334 0.697283 0.165898
vn 0.581183 0.578346 0.572488
vn 0.666365 0.354919 0.655737
vn 0.921376 0.359336 0.148137
vn -0.697115 -0.697623 -0.165384
vn -0.179127 -0.967923 -0.176179
vn -0.175869 -0.967514 0.181621
vn -0.694093 -0.697251 0.179098
vn 0.007399 -0.554864 0.831908
vn 0.000378 -0.999996 -0.002630
vn -0.006962 -0.552932 -0.833198
vn 0.007405 -0.551352 0.834240
vn 0.347331 -0.872838 -0.342804
vn 0.698405 -0.671793 -0.246828
vn 0.721864 -0.692013 -0.005563
vn 0.392597 -0.919707 -0.002501
vn 0.595472 0.572890 0.563214
vn 0.702093 0.672603 0.233819
vn 0.702905 0.673418 0.228984
vn -0.700621 0.000388 0.713533
vn -0.700623 0.000388 0.713532
vn -0.185430 0.000860 0.982657
vn -0.185430 0.000860 0.982657
vn 0.697826 0.671904 -0.248160
vn 0.241371 0.684133 -0.688260
vn 0.467551 0.752297 -0.464161
vn -0.463342 0.758772 -0.457799
vn -0.686605 0.687383 -0.236807
vn -0.705577 0.708612 0.005400
vn -0.705577 0.708612 0.005400
vn -0.247245 0.685131 -0.685176
vn -0.686605 0.687383 -0.236807
vn -0.463342 0.758772 -0.457799
vn -0.682677 0.687938 0.246359
vn -0.235532 0.688691 0.685733
vn -0.456497 0.760474 0.461833
vn -0.456497 0.760474 0.461833
vn -0.235532 0.688691 0.685733
vn 0.595472 0.572890 0.563214
vn 0.165214 0.695318 -0.699455
vn 0.176393 0.967450 -0.181458
vn 0.694401 0.697009 -0.178846
vn 0.571776 0.577780 -0.582446
vn 0.611891 -0.488898 0.621746
vn 0.165318 -0.691768 0.702941
vn 0.153685 -0.974365 0.164297
vn 0.176844 -0.967780 -0.179244
vn 0.694736 -0.697047 -0.177389
vn 0.794148 -0.598471 0.105648
vn 0.153685 -0.974365 0.164297
vn 0.611891 -0.488898 0.621746
vn 0.794148 -0.598471 0.105648
vn 0.921661 -0.358310 0.148847
vn 0.666665 -0.353123 0.656400
vn -0.222508 -0.782594 0.581409
vn 0.165318 -0.691768 0.702941
vn 0.164665 -0.359173 0.918630
vn 0.699853 -0.000390 -0.714286
vn 0.699865 -0.000390 -0.714275
vn 0.979366 0.000216 -0.202092
vn 0.979365 0.000216 -0.202100
vn 0.147642 0.357551 -0.922149
vn 0.165214 0.695318 -0.699455
vn 0.571776 0.577780 -0.582446
vn 0.654366 0.354073 -0.668160
vn -0.666091 0.353558 -0.656749
vn -0.921597 0.358603 -0.148535
vn -0.697951 0.696438 -0.166849
vn -0.582197 0.577327 -0.572487
vn -0.384995 -0.001051 -0.922918
vn -0.384995 -0.001051 -0.922918
vn -0.200539 -0.001024 -0.979685
vn -0.200540 -0.001024 -0.979685
vn -0.581607 -0.579119 -0.571274
vn -0.665803 -0.355369 -0.656063
vn -0.163504 -0.359342 -0.918771
vn -0.177124 -0.696945 -0.694906
vn -0.694927 0.696725 0.177907
vn -0.571690 0.577897 0.582414
vn -0.165608 0.697166 0.697519
vn -0.177000 0.967582 0.180156
vn -0.705577 0.708612 0.005400
vn -0.682677 0.687938 0.246359
vn -0.456497 0.760474 0.461833
vn -0.705577 0.708612 0.005400
vn -0.177821 0.695183 -0.696491
vn -0.180268 0.967306 -0.178387
vn 0.176393 0.967450 -0.181458
vn 0.165214 0.695318 -0.699455
vn 0.712831 0.000968 0.701335
vn 0.712839 0.000968 0.701327
vn 0.982565 0.000585 0.185917
vn 0.982564 0.000585 0.185922
vn -1.000000 -0.000418 -0.000633
vn -0.982706 -0.000586 -0.185170
vn -0.979212 -0.000214 0.202841
vn -0.979211 -0.000214 0.202842
vn -0.177000 0.967582 0.180156
vn -0.165608 0.697166 0.697519
vn 0.177050 0.697312 0.694557
vn 0.179315 0.967725 0.177075
vn -0.694927 0.696725 0.177907
vn -0.918979 0.358582 0.164004
vn -0.655255 0.354408 0.667110
vn -0.571690 0.577897 0.582414
vn -0.180268 0.967306 -0.178387
vn -0.697951 0.696438 -0.166849
vn -0.694927 0.696725 0.177907
vn -0.177000 0.967582 0.180156
vn -0.163830 0.357452 -0.919450
vn -0.177821 0.695183 -0.696491
vn 0.165214 0.695318 -0.699455
vn 0.147642 0.357551 -0.922149
vn 0.546524 -0.000589 -0.837443
vn 0.999880 0.000403 -0.015473
vn 0.560901 0.001031 0.827882
vn 0.560920 0.000986 0.827870
vn -0.165608 0.697166 0.697519
vn -0.147790 0.361097 0.920743
vn 0.163358 0.361205 0.918066
vn 0.177050 0.697312 0.694557
vn 0.694401 0.697009 -0.178846
vn 0.176393 0.967450 -0.181458
vn 0.179315 0.967725 0.177075
vn 0.697334 0.697283 0.165898
vn -0.177124 -0.696945 -0.694906
vn -0.163504 -0.359342 -0.918771
vn 0.147953 -0.359211 -0.921454
vn 0.165682 -0.696801 -0.697867
vn -0.654932 -0.353686 0.667810
vn -0.571105 -0.577496 0.583384
vn -0.222508 -0.782594 0.581409
vn -0.314803 -0.324307 0.892034
vn 0.176844 -0.967780 -0.179244
vn 0.165682 -0.696801 -0.697867
vn 0.572168 -0.578649 -0.581196
vn 0.694736 -0.697047 -0.177389
vn 0.179315 0.967725 0.177075
vn 0.177050 0.697312 0.694557
vn 0.581183 0.578346 0.572488
vn 0.697334 0.697283 0.165898
vn -0.185430 0.000860 0.982657
vn -0.185430 0.000860 0.982657
vn 0.202363 0.001024 0.979310
vn 0.202360 0.001024 0.979311
vn 0.918606 0.359359 -0.164391
vn 0.694401 0.697009 -0.178846
vn 0.697334 0.697283 0.165898
vn 0.921376 0.359336 0.148137
vn 0.999963 0.000410 -0.008628
vn 0.999963 0.000410 -0.008628
vn 0.931460 0.000744 0.363844
vn 0.931463 0.000744 0.363835
vn -0.999963 -0.000411 0.008629
vn -0.999963 -0.000411 0.008629
vn -0.920591 -0.000012 0.390527
vn -0.920592 -0.000012 0.390525
vn -0.999963 -0.000411 0.008628
vn -0.999963 -0.000411 0.008628
vn -0.999963 -0.000411 0.008628
vn -0.999963 -0.000411 0.008628
vn -0.343088 -0.876313 -0.338180
vn -0.246751 -0.686619 -0.683862
vn 0.241946 -0.685293 -0.686903
vn 0.347331 -0.872838 -0.342804
vn -0.571105 -0.577496 0.583384
vn -0.694093 -0.697251 0.179098
vn -0.175869 -0.967514 0.181621
vn -0.222508 -0.782594 0.581409
vn 0.654366 0.354073 -0.668160
vn 0.571776 0.577780 -0.582446
vn 0.694401 0.697009 -0.178846
vn 0.918606 0.359359 -0.164391
vn 0.715241 -0.000360 -0.698878
vn 0.715241 -0.000360 -0.698878
vn 0.924444 0.000027 -0.381317
vn 0.924440 0.000027 -0.381327
vn -0.697951 0.696438 -0.166849
vn -0.921597 0.358603 -0.148535
vn -0.918979 0.358582 0.164004
vn -0.694927 0.696725 0.177907
vn 0.165682 -0.696801 -0.697867
vn 0.147953 -0.359211 -0.921454
vn 0.654684 -0.354805 -0.667460
vn 0.572168 -0.578649 -0.581196
vn -0.180268 0.967306 -0.178387
vn -0.177000 0.967582 0.180156
vn 0.179315 0.967725 0.177075
vn 0.176393 0.967450 -0.181458
vn -0.571690 0.577897 0.582414
vn -0.655255 0.354408 0.667110
vn -0.147790 0.361097 0.920743
vn -0.165608 0.697166 0.697519
vn 0.729379 0.000971 0.684109
vn 0.729379 0.000971 0.684109
vn 0.931463 0.000744 0.363835
vn 0.931460 0.000744 0.363844
vn 0.698405 -0.671793 -0.246828
vn 0.347331 -0.872838 -0.342804
vn 0.241946 -0.685293 -0.686903
vn -0.175869 -0.967514 0.181621
vn -0.179127 -0.967923 -0.176179
vn 0.176844 -0.967780 -0.179244
vn 0.153685 -0.974365 0.164297
vn 0.202360 0.001024 0.979311
vn 0.202363 0.001024 0.979310
vn 0.712839 0.000968 0.701327
vn 0.712831 0.000968 0.701335
vn -0.222508 -0.782594 0.581409
vn -0.175869 -0.967514 0.181621
vn 0.153685 -0.974365 0.164297
vn 0.165318 -0.691768 0.702941
vn 0.279747 -0.921552 0.269228
vn 0.392597 -0.919707 -0.002501
vn 0.721864 -0.692013 -0.005563
vn 0.721901 -0.691974 -0.005559
vn -0.343088 -0.876313 -0.338180
vn -0.686109 -0.688349 -0.235435
vn -0.246751 -0.686619 -0.683862
vn 0.599562 -0.569270 0.562545
vn 0.599562 -0.569270 0.562545
vn 0.599562 -0.569270 0.562545
vn -0.571382 -0.579058 0.581563
vn -0.571382 -0.579058 0.581563
vn -0.571382 -0.579058 0.581563
vn -0.008629 -0.000960 -0.999962
vn -0.008629 -0.000960 -0.999962
vn -0.008629 -0.000960 -0.999962
vn -0.008612 -0.001085 -0.999962
vn -0.008612 -0.001085 -0.999962
vn -0.008612 -0.001085 -0.999962
vn 0.005785 0.709732 0.704448
vn 0.005785 0.709732 0.704448
vn 0.005785 0.709732 0.704448
vn -0.008519 -0.000958 -0.999963
vn -0.008519 -0.000958 -0.999963
vn -0.008519 -0.000958 -0.999963
vn 0.366909 -0.887315 0.279374
vn 0.366910 -0.887315 0.279374
vn 0.366910 -0.887315 0.279374
vn 0.008117 -0.381911 0.924163
vn 0.008117 -0.381911 0.924163
vn 0.008117 -0.381911 0.924163
vn -0.928262 -0.000725 -0.371927
vn -0.928262 -0.000725 -0.371927
vn -0.928262 -0.000725 -0.371927
s off
g bi:mesh_2_11_nr
usemtl initialShadingGroup
f 1/1/1 2/2/2 3/3/3
f 2/2/4 4/4/5 3/3/6
f 7/5/7 8/6/8 5/7/9 6/8/10
f 9/9/11 10/10/12 11/11/13
f 12/100/14 13/101/15 14/102/16
f 13/103/17 15/104/18 14/105/19
f 16/106/20 17/107/21 18/108/22
f 12/12/23 14/13/24 1/14/25
f 14/13/26 2/15/27 1/14/28
f 10/16/29 18/17/30 11/18/31
f 18/17/32 17/19/33 11/18/34
f 20/20/35 21/21/36 22/22/37 19/23/38
f 13/109/39 3/110/40 15/111/41
f 3/112/42 4/113/43 15/114/44
f 16/115/45 9/116/46 23/117/47
f 9/9/48 4/4/49 2/2/50 10/10/51
f 24/24/52 25/25/53 26/26/54 5/27/55
f 18/17/56 10/16/57 2/15/58 14/13/59
f 28/28/60 29/29/61 30/30/62 27/31/63
f 32/32/64 33/33/65 34/34/66 31/35/67
f 36/36/68 37/37/69 38/38/70 35/39/71
f 8/40/72 39/41/73 24/24/74 5/27/75
f 34/34/76 33/33/77 41/118/78 40/42/79
f 42/43/80 43/44/81 44/45/82
f 46/46/83 45/47/84 3/48/85 13/49/86
f 49/50/87 50/51/88 47/52/89 48/53/90
f 3/54/91 51/55/92 52/119/93 1/56/94
f 29/57/95 54/58/96 53/59/97 30/60/98
f 51/55/99 34/34/100 40/42/101 52/120/102
f 55/61/103 56/121/104 39/41/105 17/62/106
f 32/122/107 57/123/108 55/63/109 23/64/110
f 44/65/111 58/66/112 59/67/113 37/68/114
f 61/124/115 62/125/116 25/126/117 60/69/118
f 58/66/119 63/70/120 21/21/121 20/20/122
f 44/65/123 43/71/124 63/70/125 58/66/126
f 48/53/127 47/52/128 64/72/129 65/73/130
f 66/127/131 67/128/132 68/129/133 69/130/134
f 56/131/135 61/132/136 60/69/137 39/133/138
f 45/74/139 31/35/140 34/34/141 51/55/142
f 70/134/143 66/135/144 69/136/145 50/75/146
f 71/76/147 65/77/148 29/29/149 28/28/150
f 75/78/151 72/79/152 73/80/153 74/81/154
f 76/137/155 77/138/156 78/139/157 79/140/158
f 37/68/159 59/67/160 80/82/161 38/83/162
f 81/141/163 74/81/164 73/80/165 53/142/166
f 58/66/167 20/20/168 82/84/169 59/67/170
f 15/143/171 16/144/172 18/145/173 14/146/174
f 41/147/175 7/148/176 6/149/177 40/42/178
f 12/150/179 26/26/180 25/25/181
f 35/39/182 38/38/183 84/85/184 83/86/185
f 8/40/186 17/62/187 39/41/188
f 56/151/189 57/152/190 85/87/191 86/153/192
f 55/61/193 57/154/194 56/155/195
f 46/156/196 13/157/197 62/158/198
f 62/159/199 13/160/200 12/161/201
f 90/162/202 87/163/203 88/164/204 89/165/205
f 78/166/206 77/167/207 91/88/208
f 19/23/209 28/28/210 27/31/211 91/88/212
f 78/168/213 27/31/214 30/30/215 79/169/216
f 92/89/217 77/170/218 76/171/219
f 65/73/220 64/72/221 54/58/222 29/57/223
f 47/90/224 90/172/225 89/173/226 64/174/227
f 70/175/228 42/176/229 67/177/230 66/178/231
f 43/91/232 70/92/233 50/51/234 49/50/235
f 63/70/236 43/71/237 49/179/238 21/21/239
f 96/180/240 93/181/241 94/182/242 95/183/243
f 85/87/244 46/184/245 62/185/246 86/186/247
f 69/187/248 68/188/249 87/189/250 90/190/251
f 73/93/252 79/94/253 30/60/254 53/59/255
f 42/43/256 44/45/257 37/37/258 36/36/259
f 95/191/260 94/192/261 75/78/262 97/193/263
f 96/194/264 36/195/265 35/196/266 93/197/267
f 68/198/268 67/199/269 96/200/270 95/201/271
f 50/75/272 69/202/273 90/203/274 47/90/275
f 9/204/276 16/205/277 15/206/278 4/207/279
f 94/208/280 83/95/281 72/79/282 75/78/283
f 88/209/284 87/210/285 97/211/286 81/212/287
f 21/21/288 49/213/289 48/214/290 22/22/291
f 38/83/292 80/82/293 92/89/294 84/215/295
f 19/23/296 22/22/297 71/76/298 28/28/299
f 97/216/300 75/78/301 74/81/302 81/217/303
f 83/86/304 84/85/305 76/96/306 72/97/307
f 54/218/308 88/219/309 81/220/310 53/221/311
f 6/8/312 5/7/313 26/222/314 98/223/315
f 85/224/316 31/225/317 45/47/318 46/46/319
f 57/226/320 32/227/321 31/228/322 85/229/323
f 33/33/324 23/230/325 11/231/326 41/232/327
f 80/82/328 59/67/329 82/84/330 92/89/331
f 64/233/332 89/234/333 88/235/334 54/236/335
f 11/237/336 17/238/337 8/6/338 7/5/339
f 67/239/340 42/240/341 36/241/342 96/242/343
f 22/22/344 48/243/345 65/77/346 71/76/347
f 68/244/348 95/245/349 97/246/350 87/247/351
f 93/248/352 35/249/353 83/95/354 94/250/355
f 12/251/356 1/252/357 98/253/358 26/254/359
f 7/255/360 41/256/361 11/257/362
f 82/84/363 20/20/364 19/23/365 91/88/366
f 72/97/367 76/96/368 79/94/369 73/93/370
f 92/89/371 82/84/372 91/88/373 77/258/374
f 52/259/375 40/42/376 6/260/377 98/261/378
f 33/33/379 32/32/380 23/262/381
f 1/56/382 52/263/383 98/264/384
f 51/55/385 3/54/386 45/74/387
f 9/9/388 11/11/389 23/98/390
f 16/265/391 55/266/392 17/267/393
f 62/268/394 12/269/395 25/25/396
f 16/270/397 23/271/398 55/272/399
f 91/88/400 27/31/401 78/273/402
f 92/89/403 76/274/404 84/275/405
f 42/43/406 70/99/407 43/44/408
