# This file uses centimeters as units for non-parametric coordinates.

mtllib bookopen.mtl
g default
v -48.430168 -0.019118 39.743259
v -2.535635 4.652830 39.743259
v -2.535635 4.652830 -39.743259
v -48.430168 -0.019118 -39.743259
v 2.535635 4.652830 -39.743259
v 2.535635 4.652830 39.743259
v 48.430168 -0.019118 39.743259
v 48.430168 -0.019118 -39.743259
v -1.014152 2.686116 -39.743259
v 0.000000 2.188477 -39.743259
v 1.014152 2.686116 -39.743259
v 1.014152 2.686116 39.743259
v 0.000000 2.188477 39.743259
v -1.014152 2.686116 39.743259
v -44.987980 5.604995 39.743259
v -2.535635 10.276940 39.743259
v -2.535635 10.276940 -39.743259
v -44.987980 5.604995 -39.743259
v 2.535635 10.276940 39.743259
v 2.535635 10.276940 -39.743259
v 44.987980 5.604995 39.743259
v 44.987980 5.604995 -39.743259
v 0.000000 7.812590 39.743259
v 0.000000 7.812590 -39.743259
vt 0.531667 0.944591
vt 0.530362 0.719991
vt 0.945803 0.722011
vt 0.948822 0.944785
vt 0.946042 0.686835
vt 0.530685 0.682613
vt 0.535271 0.458171
vt 0.952680 0.464052
vt 0.530502 0.701335
vt 0.948250 0.704389
vt 0.018769 0.383421
vt 0.019150 0.664647
vt 0.503712 0.663991
vt 0.503331 0.382765
vt 0.503772 0.708081
vt 0.019210 0.708737
vt 0.019590 0.989963
vt 0.504152 0.989307
vt 0.019170 0.679805
vt 0.503733 0.679149
vt 0.503751 0.692923
vt 0.019189 0.693578
vt 0.503742 0.686036
vt 0.019180 0.686692
vt 0.959204 0.247988
vt 0.530000 0.195796
vt 0.531031 0.143094
vt 0.927980 0.194656
vt 0.973325 0.720851
vt 0.976653 0.964848
vt 0.948930 0.979331
vt 0.531793 0.979157
vt 0.482479 0.194866
vt 0.051562 0.230231
vt 0.084848 0.178161
vt 0.483510 0.142164
vt 0.535849 0.423613
vt 0.953223 0.429507
vt 0.980812 0.444411
vt 0.973998 0.688637
vt 0.515382 0.213946
vt 0.506818 0.165722
vt 0.981117 0.710879
vt 0.980362 0.699631
vt 0.496375 0.213574
vt 0.983494 0.705296
vt 0.505787 0.218423
vn -0.109391 0.993999 0.000000
vn -0.109391 0.993999 0.000000
vn -0.109391 0.993999 0.000000
vn -0.109391 0.993999 0.000000
vn 0.109391 0.993999 0.000000
vn 0.109391 0.993999 0.000000
vn 0.109391 0.993999 0.000000
vn 0.109391 0.993999 0.000000
vn 0.696955 0.717115 0.000000
vn 0.696955 0.717115 0.000000
vn 0.000000 1.000000 0.000000
vn 0.000000 1.000000 0.000000
vn -0.696955 0.717115 0.000000
vn -0.696955 0.717115 0.000000
vn 0.000000 1.000000 0.000000
vn 0.000000 1.000000 0.000000
vn -0.101274 0.994859 0.000000
vn -0.101274 0.994859 0.000000
vn -0.101274 0.994859 0.000000
vn -0.101274 0.994859 0.000000
vn 0.101274 0.994859 0.000000
vn 0.101274 0.994859 0.000000
vn 0.101274 0.994859 0.000000
vn 0.101274 0.994859 0.000000
vn 0.790945 0.611888 0.000000
vn 0.790945 0.611888 0.000000
vn 0.696955 0.717115 0.000000
vn 0.696955 0.717115 0.000000
vn -0.790945 0.611888 0.000000
vn -0.790945 0.611888 0.000000
vn -0.696955 0.717115 0.000000
vn -0.696955 0.717115 0.000000
vn -0.696955 0.717115 0.000000
vn -0.440518 0.897744 0.000000
vn -0.440518 0.897744 0.000000
vn -0.696955 0.717115 0.000000
vn 0.440518 0.897744 0.000000
vn 0.696955 0.717115 0.000000
vn 0.696955 0.717115 0.000000
vn 0.440518 0.897744 0.000000
vn 0.000000 0.000000 1.000000
vn 0.000000 0.000000 1.000000
vn 0.000000 0.000000 1.000000
vn 0.000000 0.000000 1.000000
vn -0.000000 0.000000 -1.000000
vn -0.000000 0.000000 -1.000000
vn -0.000000 0.000000 -1.000000
vn -0.000000 0.000000 -1.000000
vn -0.852929 0.522027 0.000000
vn -0.852929 0.522027 0.000000
vn -0.852929 0.522027 0.000000
vn -0.852929 0.522027 0.000000
vn 0.000000 0.000000 1.000000
vn 0.000000 0.000000 1.000000
vn 0.000000 0.000000 1.000000
vn 0.000000 0.000000 1.000000
vn 0.852929 0.522027 0.000000
vn 0.852929 0.522027 0.000000
vn 0.852929 0.522027 0.000000
vn 0.852929 0.522027 0.000000
vn 0.000000 0.000000 -1.000000
vn 0.000000 0.000000 -1.000000
vn 0.000000 0.000000 -1.000000
vn 0.000000 0.000000 -1.000000
vn 0.000000 0.000000 1.000000
vn 0.000000 0.000000 1.000000
vn 0.000000 0.000000 1.000000
vn 0.000000 0.000000 1.000000
vn 0.000000 0.000000 -1.000000
vn 0.000000 0.000000 -1.000000
vn 0.000000 0.000000 -1.000000
vn 0.000000 0.000000 -1.000000
vn 0.000000 0.000000 -1.000000
vn 0.000000 0.000000 -1.000000
vn 0.000000 0.000000 -1.000000
vn 0.000000 0.000000 -1.000000
vn 0.000000 0.000000 1.000000
vn 0.000000 0.000000 1.000000
vn 0.000000 0.000000 1.000000
vn 0.000000 0.000000 1.000000
vn 0.000000 0.000000 -1.000000
vn 0.000000 0.000000 -1.000000
vn 0.000000 0.000000 -1.000000
vn 0.000000 0.000000 1.000000
vn 0.000000 0.000000 1.000000
vn 0.000000 0.000000 1.000000
vn 0.000000 0.000000 -1.000000
vn 0.000000 0.000000 -1.000000
vn 0.000000 0.000000 -1.000000
vn 0.000000 0.000000 1.000000
vn 0.000000 0.000000 1.000000
vn 0.000000 0.000000 1.000000
s off
g _polySurface356
usemtl initialShadingGroup
f 15/1/1 16/2/2 17/3/3 18/4/4
f 20/5/5 19/6/6 21/7/7 22/8/8
f 17/3/9 16/2/10 23/9/11 24/10/12
f 19/6/13 20/5/14 24/10/15 23/9/16
f 1/11/17 2/12/18 3/13/19 4/14/20
f 5/15/21 6/16/22 7/17/23 8/18/24
f 3/13/25 2/12/26 14/19/27 9/20/28
f 6/16/29 5/15/30 11/21/31 12/22/32
f 11/21/33 10/23/34 13/24/35 12/22/36
f 10/23/37 9/20/38 14/19/39 13/24/40
f 1/25/41 2/26/42 16/27/43 15/28/44
f 3/29/45 4/30/46 18/4/47 17/3/48
f 4/31/49 1/32/50 15/1/51 18/4/52
f 6/33/53 7/34/54 21/35/55 19/36/56
f 7/37/57 8/38/58 22/8/59 21/7/60
f 8/39/61 5/40/62 20/5/63 22/8/64
f 2/26/65 14/41/66 23/42/67 16/27/68
f 9/43/69 3/29/70 17/3/71 24/10/72
f 5/40/73 11/44/74 24/10/75 20/5/76
f 12/45/77 6/33/78 19/36/79 23/42/80
f 11/44/81 10/46/82 24/10/83
f 13/47/84 12/45/85 23/42/86
f 10/46/87 9/43/88 24/10/89
f 14/41/90 13/47/91 23/42/92
g default
v -51.543411 -2.579669 39.743252
v 51.543411 -2.579669 39.743252
v -51.543411 -0.336037 39.743252
v 51.543411 -0.336037 39.743252
v -51.543411 -0.336037 -39.743252
v 51.543411 -0.336037 -39.743252
v -51.543411 -2.579669 -39.743252
v 51.543411 -2.579669 -39.743252
v 0.000000 0.485822 39.743252
v 0.000000 0.485822 -39.743252
v 0.000000 1.697981 -39.743252
v 0.000000 1.697981 39.743252
v -1.587426 1.164079 39.743252
v -2.946949 2.625695 39.743252
v -1.587426 2.579670 39.743252
v -2.535635 4.652830 39.743252
v 1.587426 1.164080 39.743252
v 2.946949 2.625695 39.743252
v 1.587426 2.579669 39.743252
v 2.535635 4.652830 39.743252
v 1.587426 1.164079 -39.743252
v 2.946949 2.625695 -39.743252
v -1.587426 1.164079 -39.743252
v -2.946949 2.625695 -39.743252
v 1.587426 2.579669 -39.743252
v 2.535635 4.652830 -39.743252
v -1.587426 2.579669 -39.743252
v -2.535635 4.652830 -39.743252
vt 0.003906 0.003906
vt 0.867186 0.003906
vt 0.867186 0.028274
vt 0.003906 0.028274
vt 0.038798 0.226135
vt 0.902078 0.226135
vt 0.902078 0.250502
vt 0.038798 0.250502
vt 0.979022 0.674753
vt 0.979047 0.686579
vt 0.508119 0.687599
vt 0.508093 0.675772
vt 0.379328 0.095666
vt 0.388657 0.085611
vt 0.388669 0.095338
vt 0.382172 0.109592
vt 0.028431 0.691930
vt 0.028347 0.678616
vt 0.492580 0.675683
vt 0.492664 0.688997
vt 0.410473 0.085583
vt 0.419827 0.095615
vt 0.417019 0.109548
vt 0.410485 0.095310
vt 0.978952 0.642472
vt 0.978978 0.654298
vt 0.508049 0.655317
vt 0.508024 0.643491
vt 0.028213 0.657405
vt 0.028129 0.644091
vt 0.492362 0.641158
vt 0.492446 0.654472
vt 0.421672 0.145277
vt 0.411977 0.154979
vt 0.412325 0.145258
vt 0.419347 0.131255
vt 0.390175 0.154197
vt 0.381199 0.143825
vt 0.384523 0.130006
vt 0.390523 0.144476
vt 0.979000 0.664526
vt 0.508071 0.665545
vt 0.753710 0.059427
vt 0.753729 0.074844
vt 0.026312 0.356387
vt 0.490544 0.353454
vt 0.754656 0.177585
vt 0.754103 0.192992
vt 0.507397 0.353928
vt 0.978325 0.352908
vt 0.508746 0.977162
vt 0.979674 0.976143
vt 0.046756 0.152194
vt 0.046204 0.167601
vt 0.030249 0.979634
vt 0.494482 0.976701
vt 0.045355 0.060317
vt 0.045375 0.075734
vt 0.400909 0.159246
vt 0.401207 0.150922
vt 0.492513 0.665078
vt 0.028280 0.668010
vt 0.399559 0.080936
vt 0.399570 0.089266
vn 1.000000 0.000000 0.000000
vn 1.000000 0.000000 0.000000
vn 1.000000 0.000000 0.000000
vn 1.000000 0.000000 0.000000
vn -1.000000 0.000000 0.000000
vn -1.000000 0.000000 0.000000
vn -1.000000 0.000000 0.000000
vn -1.000000 0.000000 0.000000
vn -0.587568 -0.809175 0.000000
vn 0.074731 -0.997204 0.000000
vn 0.074731 -0.997204 0.000000
vn -0.587568 -0.809175 0.000000
vn 0.000000 0.000000 1.000000
vn 0.000000 0.000000 1.000000
vn 0.000000 0.000000 1.000000
vn 0.000000 0.000000 1.000000
vn -0.058266 0.998301 0.000000
vn 0.758888 0.651222 0.000000
vn 0.758888 0.651222 0.000000
vn -0.058266 0.998301 0.000000
vn 0.000000 0.000000 1.000000
vn 0.000000 0.000000 1.000000
vn 0.000000 0.000000 1.000000
vn 0.000000 0.000000 1.000000
vn -0.074731 -0.997204 0.000000
vn 0.587568 -0.809175 0.000000
vn 0.587568 -0.809175 0.000000
vn -0.074731 -0.997204 0.000000
vn -0.758888 0.651222 0.000000
vn 0.058266 0.998301 0.000000
vn 0.058266 0.998301 0.000000
vn -0.758888 0.651222 0.000000
vn 0.000000 0.000000 -1.000000
vn 0.000000 0.000000 -1.000000
vn 0.000000 0.000000 -1.000000
vn 0.000000 0.000000 -1.000000
vn -0.000001 0.000000 -1.000000
vn -0.000000 0.000000 -1.000000
vn -0.000000 0.000000 -1.000000
vn -0.000000 0.000000 -1.000000
vn 0.587568 -0.809175 0.000000
vn 0.000000 -1.000000 0.000000
vn 0.000000 -1.000000 0.000000
vn 0.587568 -0.809175 0.000000
vn 0.000000 -1.000000 0.000000
vn -0.587568 -0.809175 0.000000
vn -0.587568 -0.809175 0.000000
vn 0.000000 -1.000000 0.000000
vn 0.000000 0.000000 1.000000
vn 0.000000 0.000000 1.000000
vn 0.000000 0.000000 1.000000
vn 0.000000 0.000000 1.000000
vn 0.058266 0.998301 0.000000
vn 0.058266 0.998301 0.000000
vn 0.101274 0.994859 0.000000
vn 0.101274 0.994859 0.000000
vn 0.000000 0.000000 -1.000000
vn 0.000000 0.000000 -1.000000
vn 0.000000 0.000000 -1.000000
vn 0.000000 0.000000 -1.000000
vn -0.074731 -0.997204 0.000000
vn -0.074731 -0.997204 0.000000
vn -0.106505 -0.994312 0.000000
vn -0.106505 -0.994312 0.000000
vn 0.106505 -0.994312 0.000000
vn 0.074731 -0.997204 0.000000
vn 0.074731 -0.997204 0.000000
vn 0.106505 -0.994312 0.000000
vn -0.000000 0.000000 -1.000000
vn -0.000000 0.000000 -1.000000
vn -0.000000 0.000000 -1.000000
vn -0.000000 0.000000 -1.000000
vn -0.101274 0.994859 0.000000
vn -0.058266 0.998301 0.000000
vn -0.058266 0.998301 0.000000
vn -0.101274 0.994859 0.000000
vn 0.000000 0.000000 1.000000
vn 0.000000 0.000000 1.000000
vn 0.000000 0.000000 1.000000
vn 0.000000 0.000000 1.000000
vn 0.000000 0.000000 -1.000000
vn -0.000001 0.000000 -1.000000
vn -0.000001 0.000000 -1.000000
vn 0.000000 0.000000 -1.000000
vn -0.000001 0.000000 -1.000000
vn -0.000001 0.000000 -1.000000
vn -0.000000 0.000000 -1.000000
vn -0.000001 0.000000 -1.000000
vn -0.758888 0.651222 0.000000
vn 0.000000 1.000000 0.000000
vn 0.000000 1.000000 0.000000
vn -0.758888 0.651222 0.000000
vn 0.000000 1.000000 0.000000
vn 0.758888 0.651222 0.000000
vn 0.758888 0.651222 0.000000
vn 0.000000 1.000000 0.000000
vn 0.000000 0.000000 1.000000
vn 0.000000 0.000000 1.000000
vn 0.000000 0.000000 1.000000
vn 0.000000 0.000000 1.000000
vn 0.000000 0.000000 1.000000
vn 0.000000 0.000000 1.000000
vn 0.000000 0.000000 1.000000
vn 0.000000 0.000000 1.000000
s off
g _polySurface354pCube75
usemtl initialShadingGroup
f 26/48/93 32/49/94 30/50/95 28/51/96
f 31/52/97 25/53/98 27/54/99 29/55/100
f 37/56/101 38/57/102 48/58/103 47/59/104
f 38/60/105 37/61/106 39/62/107 40/63/108
f 40/64/109 39/65/110 51/66/111 52/67/112
f 41/68/113 42/69/114 44/70/115 43/71/116
f 42/72/117 41/73/118 45/74/119 46/75/120
f 43/76/121 44/77/122 50/78/123 49/79/124
f 46/80/125 45/81/126 49/82/127 50/83/128
f 47/84/129 48/85/130 52/86/131 51/87/132
f 41/73/133 33/88/134 34/89/135 45/74/136
f 33/88/137 37/56/138 47/59/139 34/89/140
f 44/70/141 42/69/142 26/90/143 28/91/144
f 50/78/145 44/77/146 28/92/147 30/93/148
f 46/80/149 50/83/150 30/94/151 32/95/152
f 42/72/153 46/75/154 32/96/155 26/97/156
f 31/98/157 48/58/158 38/57/159 25/99/160
f 29/100/161 52/86/162 48/85/163 31/101/164
f 27/102/165 40/64/166 52/67/167 29/103/168
f 25/104/169 38/60/170 40/63/171 27/105/172
f 45/81/173 34/106/174 35/107/175 49/82/176
f 34/106/177 47/84/178 51/87/179 35/107/180
f 49/79/181 35/108/182 36/109/183 43/76/184
f 35/108/185 51/66/186 39/65/187 36/109/188
f 37/61/189 33/110/190 36/111/191 39/62/192
f 33/110/193 41/68/194 43/71/195 36/111/196
