# This file uses centimeters as units for non-parametric coordinates.

mtllib bookclose.mtl
g default
v 59.565216 3.891749 39.643944
v 111.028183 3.891749 39.643944
v 59.565216 -3.891749 39.643944
v 111.028183 -3.891749 39.643944
v 112.456802 1.945679 39.643944
v 113.094315 0.000000 39.643944
v 112.456802 -1.945679 39.643944
v 59.565216 1.945679 39.643944
v 59.565216 -1.945679 39.643944
v 110.406021 1.945679 39.643944
v 109.032806 3.891749 39.643944
v 109.123741 -3.891749 39.643944
v 110.499512 -1.945679 39.643944
v 111.060211 0.047874 39.643944
v 61.706448 -2.039339 37.743649
v 61.706448 2.039339 37.743649
v 110.254707 2.039339 37.743649
v 110.342468 -2.039339 37.743649
v 110.868797 0.050178 37.743649
v 59.565216 3.891749 -39.619488
v 111.028183 3.891749 -39.619488
v 59.565216 -3.891749 -39.619488
v 111.028183 -3.891749 -39.619488
v 112.456802 1.945679 -39.619488
v 113.094315 0.000000 -39.619488
v 112.456802 -1.945679 -39.619488
v 59.565216 1.945679 -39.619488
v 59.565216 -1.945679 -39.619488
v 110.406021 1.945679 -39.619488
v 109.032806 3.891749 -39.619488
v 109.123741 -3.891749 -39.619488
v 110.499512 -1.945679 -39.619488
v 111.060211 0.047874 -39.619488
v 61.706448 -2.039339 -37.719193
v 61.706448 2.039339 -37.719193
v 110.254707 2.039339 -37.719193
v 110.342468 -2.039339 -37.719193
v 110.868797 0.050178 -37.719193
vt 0.494790 0.499123
vt 0.637472 0.436021
vt 0.637472 0.436021
vt 0.637472 0.436021
vt 0.637472 0.436021
vt 0.637472 0.436021
vt 0.637472 0.436021
vt 0.528437 0.498734
vt 0.637472 0.436021
vt 0.312500 0.281250
vt 0.802593 0.447244
vt 0.312500 0.281250
vt 0.511438 0.498707
vt 0.637472 0.436021
vt 0.228359 0.426041
vt 0.499504 0.490814
vt 0.524502 0.489852
vt 0.789628 0.440001
vt 0.511765 0.490732
vt 0.263397 0.059022
vt 0.272551 0.070871
vt 0.637472 0.436021
vt 0.637472 0.436021
vt 0.637472 0.436021
vt 0.637472 0.436021
vt 0.496879 0.081510
vt 0.885298 0.833705
vt 0.312500 0.281250
vt 0.637472 0.436021
vt 0.511657 0.084507
vt 0.755723 0.034201
vt 0.312500 0.281250
vt 0.637472 0.436021
vt 0.505440 0.082455
vt 0.746514 0.046374
vt 0.495600 0.091311
vt 0.514275 0.094057
vt 0.504796 0.092385
vt 0.267233 0.637363
vt 0.312500 0.281250
vt 0.133033 0.736973
vt 0.637472 0.436021
vt 0.262953 0.628186
vt 0.215321 0.431745
vt 0.130495 0.764744
vt 0.312500 0.281250
vt 0.852293 0.886685
vt 0.862894 0.858967
vt 0.856032 0.831031
vt 0.312500 0.281250
vt 0.125422 0.820277
vt 0.830122 0.912664
vt 0.857300 0.915147
vt 0.838973 0.801469
vt 0.867448 0.804070
vt 0.637472 0.436021
vt 0.122884 0.848049
vt 0.880225 0.889237
vt 0.637472 0.436021
vt 0.891860 0.862302
vt 0.692283 0.709080
vt 0.312500 0.281250
vt 0.684601 0.715692
vt 0.637472 0.436021
vt 0.524677 0.510343
vt 0.521754 0.506375
vt 0.493957 0.511176
vt 0.499339 0.508688
vt 0.520369 0.504170
vt 0.502918 0.505092
vt 0.511450 0.508967
vn 0.000000 0.000000 1.000000
vn 0.000000 0.000000 1.000000
vn 0.000000 0.000000 1.000000
vn 0.000000 0.000000 1.000000
vn 0.000000 0.000000 1.000000
vn 0.000000 0.000000 1.000000
vn 0.000000 0.000000 1.000000
vn 0.000000 0.000000 1.000000
vn 0.000000 0.000000 1.000000
vn 0.000000 0.000000 1.000000
vn 0.000000 0.000000 1.000000
vn 0.000000 0.000000 1.000000
vn 0.000000 0.000000 1.000000
vn 0.000000 0.000000 1.000000
vn 0.000000 0.000000 1.000000
vn 0.000000 0.000000 1.000000
vn 0.000000 0.000000 1.000000
vn 0.000000 0.000000 1.000000
vn 0.000000 0.000000 1.000000
vn 0.000000 0.000000 1.000000
vn 0.000000 -0.998788 -0.049227
vn 0.000000 -0.998788 -0.049227
vn 0.000000 -0.998788 -0.049227
vn 0.000000 -0.998788 -0.049227
vn 0.000000 0.998788 -0.049227
vn 0.000000 0.998788 -0.049227
vn 0.000000 0.998788 -0.049227
vn 0.000000 0.998788 -0.049227
vn -0.947802 -0.309258 0.077662
vn -0.947802 -0.309258 0.077662
vn -0.947802 -0.309258 0.077662
vn -0.947802 -0.309258 0.077662
vn -0.963075 0.256398 0.082137
vn -0.963075 0.256398 0.082137
vn -0.963075 0.256398 0.082137
vn -0.963075 0.256398 0.082137
vn 0.043699 -0.999045 0.000000
vn 0.043699 -0.999045 0.000000
vn 0.043699 -0.999045 0.000000
vn 0.043699 -0.999045 0.000000
vn 0.000000 1.000000 0.000000
vn 0.000000 1.000000 0.000000
vn 0.000000 1.000000 0.000000
vn 0.000000 1.000000 0.000000
vn 0.000000 -1.000000 0.000000
vn 0.000000 -1.000000 0.000000
vn 0.000000 -1.000000 0.000000
vn 0.000000 -1.000000 0.000000
vn 0.000000 0.000000 -1.000000
vn 0.000000 0.000000 -1.000000
vn 0.000000 0.000000 -1.000000
vn 0.000000 0.000000 -1.000000
vn 0.883244 0.468914 0.000000
vn 0.883244 0.468914 0.000000
vn 0.806108 0.591768 0.000000
vn 0.806108 0.591768 0.000000
vn -1.000000 0.000000 0.000000
vn -1.000000 0.000000 0.000000
vn -1.000000 0.000000 0.000000
vn -1.000000 0.000000 0.000000
vn 0.806108 -0.591768 0.000000
vn 0.806108 -0.591768 0.000000
vn 0.883244 -0.468914 0.000000
vn 0.883244 -0.468914 0.000000
vn 0.000000 0.000000 -1.000000
vn 0.000000 0.000000 -1.000000
vn 0.000000 0.000000 -1.000000
vn 0.000000 0.000000 -1.000000
vn -1.000000 0.000000 0.000000
vn -1.000000 0.000000 0.000000
vn -1.000000 0.000000 0.000000
vn -1.000000 0.000000 0.000000
vn 0.950290 0.311367 0.000000
vn 0.950290 0.311367 0.000000
vn 0.950290 -0.311367 0.000000
vn 0.950290 -0.311367 0.000000
vn 0.000000 0.000000 -1.000000
vn 0.000000 0.000000 -1.000000
vn 0.000000 1.000000 0.000000
vn 0.000000 1.000000 0.000000
vn 0.000000 -1.000000 0.000000
vn 0.000000 -1.000000 0.000000
vn 0.000000 0.000000 -1.000000
vn 0.000000 0.000000 -1.000000
vn 0.000000 0.000000 -1.000000
vn 0.000000 0.000000 -1.000000
vn 0.000000 0.000000 -1.000000
vn 0.000000 0.000000 -1.000000
vn 0.000002 0.000000 -1.000000
vn 0.000002 0.000000 -1.000000
vn 0.000002 0.000000 -1.000000
vn 0.000002 0.000000 -1.000000
vn 0.043699 0.999045 0.000000
vn 0.043699 0.999045 0.000000
vn 0.043699 0.999045 0.000000
vn 0.043699 0.999045 0.000000
vn 0.000000 -0.998788 0.049227
vn 0.000000 -0.998788 0.049227
vn 0.000000 -0.998788 0.049227
vn 0.000000 -0.998788 0.049227
vn 0.000000 0.998788 0.049227
vn 0.000000 0.998788 0.049227
vn 0.000000 0.998788 0.049227
vn 0.000000 0.998788 0.049227
vn -0.947802 -0.309257 -0.077662
vn -0.947802 -0.309257 -0.077662
vn -0.947802 -0.309257 -0.077662
vn -0.947802 -0.309257 -0.077662
vn -0.963075 0.256398 -0.082137
vn -0.963075 0.256398 -0.082137
vn -0.963075 0.256398 -0.082137
vn -0.963075 0.256398 -0.082137
vn -0.969710 0.244258 0.000000
vn -0.969710 0.244258 0.000000
vn -0.969710 0.244258 0.000000
vn -0.969710 0.244258 0.000000
vn -0.955503 -0.294980 0.000000
vn -0.955503 -0.294980 0.000000
vn -0.955503 -0.294980 0.000000
vn -0.955503 -0.294980 0.000000
vn 0.000000 -1.000000 0.000000
vn 0.000000 -1.000000 0.000000
vn 0.000000 -1.000000 0.000000
vn 0.000000 -1.000000 0.000000
vn 0.000000 1.000000 0.000000
vn 0.000000 1.000000 0.000000
vn 0.000000 1.000000 0.000000
vn 0.000000 1.000000 0.000000
s 1
g polySurface357 pCube78
usemtl initialShadingGroup
f 10/1/1 5/70/2 2/68/3 11/67/4
s 2
f 12/65/5 4/66/6 7/69/7 13/8/8
s 1
f 1/39/9 8/43/10 10/1/1 11/67/4
s 2
f 9/61/11 3/63/12 12/65/5 13/8/8
s off
f 10/1/13 14/13/14 6/71/15 5/70/16
f 7/69/17 6/71/18 14/13/19 13/8/20
f 8/44/21 16/15/22 17/16/23 10/1/24
f 13/8/25 18/17/26 15/18/27 9/11/28
f 10/1/29 17/16/30 19/19/31 14/13/32
f 14/13/33 19/19/34 18/17/35 13/8/36
f 16/15/37 8/44/38 27/20/39 35/21/40
s 3
f 2/3/41 21/22/42 30/23/43 11/4/44
s 4
f 12/5/45 31/24/46 23/25/47 4/6/48
s 5
f 29/49/49 30/54/50 21/55/51 24/27/52
s 6
f 5/2/53 24/59/54 21/22/55 2/3/56
s off
f 1/40/57 20/28/58 27/46/59 8/10/60
s 7
f 4/6/61 23/25/62 26/29/63 7/7/64
s 8
f 31/52/65 32/47/66 26/58/67 23/53/68
s off
f 9/62/69 28/50/70 22/32/71 3/12/72
s 6
f 6/14/73 25/33/74 24/59/54 5/2/53
s 7
f 7/7/64 26/29/63 25/33/75 6/14/76
s 5
f 20/41/77 30/54/50 29/49/49 27/45/78
s 3
f 11/4/44 30/23/43 20/42/79 1/9/80
s 4
f 3/64/81 22/56/82 31/24/46 12/5/45
s 8
f 28/51/83 32/47/66 31/52/65 22/57/84
s off
f 29/49/85 24/27/86 25/60/87 33/48/88
f 26/58/89 32/47/90 33/48/91 25/60/92
f 15/18/93 34/35/94 28/31/95 9/11/96
f 27/20/97 29/26/98 36/36/99 35/21/100
f 32/30/101 28/31/102 34/35/103 37/37/104
f 29/26/105 33/34/106 38/38/107 36/36/108
f 33/34/109 32/30/110 37/37/111 38/38/112
f 18/17/113 19/19/114 38/38/115 37/37/116
f 19/19/117 17/16/118 36/36/119 38/38/120
f 16/15/121 35/21/122 36/36/123 17/16/124
f 34/35/125 15/18/126 18/17/127 37/37/128
g default
v 61.706451 2.039339 37.743649
v 61.706451 -2.039339 37.743649
v 110.342499 -2.039339 37.743649
v 110.872704 0.025089 37.743649
v 110.254700 2.039339 37.743649
v 61.706451 2.039339 -37.719189
v 61.706451 -2.039339 -37.719189
v 110.872704 0.025089 -37.719189
v 110.342499 -2.039339 -37.719189
v 110.254700 2.039339 -37.719189
vt 0.807628 0.830877
vt 0.807626 0.891790
vt 0.081270 0.891763
vt 0.073352 0.860932
vt 0.082583 0.830850
vt 0.985138 0.031441
vt 0.985138 0.950191
vt 0.935481 0.950191
vt 0.935481 0.031441
vt 0.065992 0.724561
vt 0.794326 0.760627
vt 0.786207 0.791152
vt 0.065476 0.785002
vt 0.785422 0.730700
vt 0.031278 0.030191
vt 0.454927 0.030191
vt 0.454927 0.688706
vt 0.031278 0.688706
vt 0.491913 0.030191
vt 0.916328 0.030191
vt 0.916328 0.688706
vt 0.491913 0.688706
vt 0.473313 0.030191
vt 0.473313 0.688706
vn 0.000000 0.000000 1.000000
vn 0.000000 0.000000 1.000000
vn 0.000000 0.000000 1.000000
vn 0.000000 0.000000 1.000000
vn 0.000000 0.000000 1.000000
vn 0.000000 0.000000 1.000000
vn 0.000000 0.000000 1.000000
vn -1.000000 0.000000 0.000000
vn -1.000000 0.000000 0.000000
vn -1.000000 0.000000 0.000000
vn -1.000000 0.000000 0.000000
vn -0.000000 0.000000 -1.000000
vn -0.000000 0.000000 -1.000000
vn -0.000000 0.000000 -1.000000
vn -0.000000 0.000000 -1.000000
vn -0.000000 0.000000 -1.000000
vn 0.000000 0.000000 -1.000000
vn -0.000000 0.000000 -1.000000
vn 0.000000 1.000000 0.000000
vn 0.000000 1.000000 0.000000
vn 0.000000 1.000000 0.000000
vn 0.000000 1.000000 0.000000
vn 0.000000 -1.000000 0.000000
vn 0.000000 -1.000000 0.000000
vn 0.000000 -1.000000 0.000000
vn 0.000000 -1.000000 0.000000
vn 0.956014 0.293323 0.000000
vn 0.956014 0.293323 0.000000
vn 0.999769 0.021513 0.000000
vn 0.999769 0.021513 0.000000
vn 0.999769 0.021513 0.000000
vn 0.999769 0.021513 0.000000
vn 0.968562 -0.248773 0.000000
vn 0.968562 -0.248773 0.000000
s off
g _polySurface358pCube78
usemtl initialShadingGroup
f 39/72/129 40/73/130 41/74/131 42/75/132
f 39/72/133 42/75/134 43/76/135
f 39/77/136 44/78/137 45/79/138 40/80/139
f 44/81/140 46/82/141 47/83/142 45/84/143
f 44/81/144 48/85/145 46/82/146
f 39/86/147 43/87/148 48/88/149 44/89/150
f 41/90/151 40/91/152 45/92/153 47/93/154
f 48/88/155 43/87/156 42/94/157 46/95/158
f 46/95/159 42/94/160 41/90/161 47/93/162
