# This file uses centimeters as units for non-parametric coordinates.

mtllib 1.mtl
g default
v -109.704155 250.515579 24.046513
v -107.287750 250.515579 -23.867649
v -183.170441 250.515579 -1.914917
v -154.311859 250.515579 -39.861420
v -115.744026 250.515579 -1.077320
v -164.502533 250.515579 15.375538
v -154.793533 250.515579 38.344353
v -135.774567 250.515579 26.124653
v -164.502533 250.515579 -18.375940
v -134.032501 250.515579 -26.390278
v -153.675781 246.757782 -37.122952
v -163.152771 246.757782 -17.142151
v -134.816620 246.757782 -24.595226
v -163.152771 246.757782 14.245632
v -117.808937 246.757782 -1.054996
v -136.436691 246.757782 24.241959
v -112.192055 246.757782 22.309357
v -154.123703 246.757782 35.605885
v -180.513306 246.757782 -1.833931
v -109.944878 246.757782 -22.249266
v -154.360794 249.273804 -40.072102
v -154.194321 248.129791 -39.355396
v -164.247910 248.123276 -18.143183
v -164.606812 249.268677 -18.471251
v -182.669128 248.123260 -1.899639
v -183.375702 249.268707 -1.921173
v -164.244019 248.118439 15.159126
v -164.607025 249.266235 15.462994
v -154.669800 248.129913 37.838531
v -154.845001 249.275177 38.554798
v -135.895966 248.132233 25.779495
v -135.723572 249.272247 26.269672
v -110.153931 248.136520 23.732464
v -109.513008 249.275421 24.179985
v -116.117340 248.136505 -1.073284
v -115.585373 249.275436 -1.079037
v -107.777054 248.130859 -23.569626
v -107.083092 249.272339 -23.992302
v -134.176865 248.130905 -26.059780
v -133.972107 249.272385 -26.528536
vt 0.472498 0.416256
vt 0.500000 0.500000
vt 0.500000 0.500000
vt 0.527497 0.451249
vt 0.527497 0.375000
vt 0.625000 0.250000
vt 0.625000 0.250000
vt 0.527497 0.298751
vt 0.500000 0.250000
vt 0.471008 0.332462
vt 0.527497 0.298751
vt 0.500000 0.250000
vt 0.471008 0.332462
vt 0.375000 0.375000
vt 0.375000 0.375000
vt 0.472498 0.416256
vt 0.527497 0.451249
vt 0.625000 0.500000
vt 0.625000 0.499999
vt 0.527497 0.375000
vt 0.472498 0.416256
vt 0.500000 0.500000
vt 0.375000 0.375000
vt 0.472498 0.416257
vt 0.471008 0.332462
vt 0.375000 0.375000
vt 0.500000 0.250000
vt 0.471008 0.332462
vt 0.527497 0.298751
vt 0.500000 0.250000
vt 0.625000 0.250000
vt 0.527497 0.298751
vt 0.527497 0.375000
vt 0.625000 0.250000
vt 0.625000 0.500000
vt 0.527497 0.375000
vt 0.527497 0.451249
vt 0.625000 0.500000
vt 0.500000 0.500000
vt 0.527497 0.451249
vn 0.000000 -1.000000 0.000000
vn 0.000000 -1.000000 0.000000
vn 0.000000 -1.000000 0.000000
vn 0.000000 -1.000000 -0.000000
vn 0.000000 -1.000000 -0.000002
vn 0.000000 -1.000000 -0.000000
vn 0.000000 -1.000000 -0.000000
vn 0.000000 -1.000000 0.000000
vn 0.000000 -1.000000 0.000000
vn 0.000000 -1.000000 0.000000
vn 0.000000 -1.000000 0.000001
vn 0.000000 -1.000000 0.000000
vn 0.000000 -1.000000 0.000000
vn 0.000000 -1.000000 0.000000
vn 0.000000 -1.000000 -0.000000
vn 0.000000 -1.000000 -0.000000
vn 0.000000 -1.000000 0.000001
vn 0.000000 -1.000000 -0.000002
vn 0.000000 -1.000000 0.000000
vn 0.000000 -1.000000 0.000000
vn 0.549464 -0.117656 -0.827192
vn 0.315591 -0.154158 -0.936289
vn 0.242397 -0.652176 -0.718269
vn 0.456705 -0.564521 -0.687558
vn -0.771903 -0.519747 -0.366099
vn -0.623692 -0.623315 -0.471686
vn -0.789208 -0.145047 -0.596751
vn -0.898505 -0.105279 -0.426153
vn -0.554549 -0.544952 -0.628890
vn -0.657072 -0.114040 -0.745152
vn -0.577580 -0.526790 0.623614
vn -0.649139 -0.609502 0.455111
vn -0.810640 -0.140859 0.568349
vn -0.675450 -0.109219 0.729273
vn -0.796180 -0.502844 0.336519
vn -0.916372 -0.101193 0.387327
vn 0.445178 -0.567116 0.692962
vn 0.226655 -0.660280 0.716001
vn 0.298200 -0.156615 0.941567
vn 0.536724 -0.118275 0.835427
vn 0.066090 -0.554902 0.829286
vn 0.078947 -0.112292 0.990534
vn 0.796033 -0.574204 -0.191367
vn 0.736974 -0.674784 0.039203
vn 0.960395 -0.155998 -0.230881
vn 0.965537 -0.117727 -0.232117
vn 0.781981 -0.551664 0.290126
vn 0.931793 -0.110633 0.345721
vn 0.926386 -0.153855 0.343712
vn 0.079279 -0.535971 -0.840506
vn 0.093370 -0.106744 -0.989893
vn -0.626619 -0.720430 -0.297203
vn -0.535949 -0.734714 -0.415878
vn 0.216142 -0.757605 -0.615887
vn 0.363759 -0.753544 -0.547587
vn 0.623665 -0.767179 -0.149931
vn 0.631754 -0.774798 0.023977
vn 0.195799 -0.764324 0.614387
vn 0.052234 -0.753585 0.655272
vn -0.562068 -0.721845 0.403756
vn -0.651272 -0.707144 0.275305
vn 0.354029 -0.755676 0.551015
vn -0.471568 -0.720010 0.509126
vn -0.449283 -0.733853 -0.509515
vn 0.062991 -0.741642 -0.667831
vn 0.616512 -0.753383 0.228751
vn -0.898268 0.107683 -0.426052
vn -0.789988 0.112138 -0.602780
vn -0.657230 0.111935 -0.745331
vn -0.675585 0.107559 0.729395
vn -0.811704 0.108060 0.573987
vn -0.916126 0.103717 0.387243
vn 0.536676 0.119450 0.835291
vn 0.300231 0.122654 0.945948
vn 0.078899 0.118686 0.989792
vn 0.964825 0.123744 -0.231948
vn 0.964825 0.123744 -0.231948
vn 0.930924 0.118617 0.345414
vn 0.930924 0.118617 0.345415
vn 0.093289 0.114524 -0.989031
vn 0.320885 0.120073 -0.939476
vn 0.549413 0.118678 -0.827080
s 1
g pCube74
usemtl initialShadingGroup
f 11/2/1 13/4/2 12/16/3
f 15/20/4 16/8/5 14/10/6
f 17/6/7 16/8/5 15/20/4
f 16/8/5 18/12/8 14/10/6
f 19/14/9 12/16/3 14/10/6
f 13/4/2 15/20/4 14/10/6 12/16/3
f 20/18/10 15/20/4 13/4/2
s 3
f 4/39/11 10/37/12 9/21/13
f 5/33/14 8/29/15 6/25/16
f 1/31/17 8/29/15 5/33/14
f 8/29/15 7/27/18 6/25/16
f 3/23/19 9/21/13 6/25/16
f 10/37/12 5/33/14 6/25/16 9/21/13
f 2/35/20 5/33/14 10/37/12
s 5
f 21/22/21 40/40/22 39/17/23 22/3/24
s 6
f 22/3/25 23/1/26 24/24/27 21/22/28
f 23/1/26 25/15/29 26/26/30 24/24/27
s 7
f 25/15/31 27/13/32 28/28/33 26/26/34
f 27/13/32 29/9/35 30/30/36 28/28/33
s 8
f 29/9/37 31/11/38 32/32/39 30/30/40
f 31/11/38 33/7/41 34/34/42 32/32/39
s 9
f 33/7/43 35/5/44 36/36/45 34/34/46
f 35/5/44 37/19/47 38/38/48 36/36/49
s 5
f 37/19/50 39/17/23 40/40/22 38/38/51
s 6
f 22/3/25 11/2/52 12/16/53 23/1/26
s 5
f 39/17/23 13/4/54 11/2/55 22/3/24
s 9
f 33/7/43 17/6/56 15/20/57 35/5/44
s 8
f 31/11/38 16/8/58 17/6/59 33/7/41
s 7
f 27/13/32 14/10/60 18/12/61 29/9/35
s 8
f 29/9/37 18/12/62 16/8/58 31/11/38
s 7
f 25/15/31 19/14/63 14/10/60 27/13/32
s 6
f 23/1/26 12/16/53 19/14/64 25/15/29
s 5
f 37/19/50 20/18/65 13/4/54 39/17/23
s 9
f 35/5/44 15/20/57 20/18/66 37/19/47
s 6
f 4/39/67 21/22/28 24/24/27 9/21/68
f 9/21/68 24/24/27 26/26/30 3/23/69
s 7
f 3/23/70 26/26/34 28/28/33 6/25/71
f 6/25/71 28/28/33 30/30/36 7/27/72
s 8
f 7/27/73 30/30/40 32/32/39 8/29/74
f 8/29/74 32/32/39 34/34/42 1/31/75
s 9
f 1/31/76 34/34/46 36/36/45 5/33/77
f 5/33/78 36/36/49 38/38/48 2/35/79
s 5
f 2/35/80 38/38/51 40/40/22 10/37/81
f 10/37/81 40/40/22 21/22/21 4/39/82
g default
v -98.868973 250.229553 -24.112158
v -116.520302 250.229553 -41.763477
v -140.632462 250.229553 -48.224316
v -164.744614 250.229553 -41.763477
v -182.395935 250.229553 -24.112158
v -188.856766 250.229553 0.000000
v -182.395935 250.229553 24.112158
v -164.744614 250.229553 41.763477
v -140.632462 250.229553 48.224316
v -116.520302 250.229553 41.763477
v -98.868973 250.229553 24.112158
v -92.408142 250.229553 0.000000
v -98.868973 260.178223 -24.112158
v -116.520302 260.178223 -41.763477
v -140.632462 260.178223 -48.224316
v -164.744614 260.178223 -41.763477
v -182.395935 260.178223 -24.112158
v -188.856766 260.178223 0.000000
v -182.395935 260.178223 24.112158
v -164.744614 260.178223 41.763477
v -140.632462 260.178223 48.224316
v -116.520302 260.178223 41.763477
v -98.868973 260.178223 24.112158
v -92.408142 260.178223 0.000000
v -140.632462 250.229553 0.000000
v -140.632462 260.178223 0.000000
vt 0.635316 0.078125
vt 0.578125 0.020934
vt 0.500000 0.000000
vt 0.421875 0.020934
vt 0.364684 0.078125
vt 0.343750 0.156250
vt 0.364684 0.234375
vt 0.421875 0.291566
vt 0.500000 0.312500
vt 0.578125 0.291566
vt 0.635316 0.234375
vt 0.656250 0.156250
vt 0.375000 0.312500
vt 0.395833 0.312500
vt 0.416667 0.312500
vt 0.437500 0.312500
vt 0.458333 0.312500
vt 0.479167 0.312500
vt 0.500000 0.312500
vt 0.520833 0.312500
vt 0.541667 0.312500
vt 0.562500 0.312500
vt 0.583333 0.312500
vt 0.604167 0.312500
vt 0.625000 0.312500
vt 0.375000 0.688440
vt 0.395833 0.688440
vt 0.416667 0.688440
vt 0.437500 0.688440
vt 0.458333 0.688440
vt 0.479167 0.688440
vt 0.500000 0.688440
vt 0.520833 0.688440
vt 0.541667 0.688440
vt 0.562500 0.688440
vt 0.583333 0.688440
vt 0.604167 0.688440
vt 0.625000 0.688440
vt 0.635316 0.765625
vt 0.578125 0.708434
vt 0.500000 0.687500
vt 0.421875 0.708434
vt 0.364684 0.765625
vt 0.343750 0.843750
vt 0.364684 0.921875
vt 0.421875 0.979066
vt 0.500000 1.000000
vt 0.578125 0.979066
vt 0.635316 0.921875
vt 0.656250 0.843750
vt 0.500000 0.150000
vt 0.500000 0.837500
vn 0.707107 0.000000 -0.707106
vn 0.707107 0.000000 -0.707106
vn 0.707107 0.000000 -0.707106
vn 0.707107 0.000000 -0.707106
vn 0.258819 0.000000 -0.965926
vn 0.258819 0.000000 -0.965926
vn 0.258819 0.000000 -0.965926
vn 0.258819 0.000000 -0.965926
vn -0.258819 0.000000 -0.965926
vn -0.258819 0.000000 -0.965926
vn -0.258819 0.000000 -0.965926
vn -0.258819 0.000000 -0.965926
vn -0.707107 0.000000 -0.707106
vn -0.707107 0.000000 -0.707106
vn -0.707107 0.000000 -0.707106
vn -0.707107 0.000000 -0.707106
vn -0.965926 0.000000 -0.258819
vn -0.965926 0.000000 -0.258819
vn -0.965926 0.000000 -0.258819
vn -0.965926 0.000000 -0.258819
vn -0.965926 0.000000 0.258819
vn -0.965926 0.000000 0.258819
vn -0.965926 0.000000 0.258819
vn -0.965926 0.000000 0.258819
vn -0.707107 0.000000 0.707106
vn -0.707107 0.000000 0.707106
vn -0.707107 0.000000 0.707106
vn -0.707107 0.000000 0.707106
vn -0.258819 0.000000 0.965926
vn -0.258819 0.000000 0.965926
vn -0.258819 0.000000 0.965926
vn -0.258819 0.000000 0.965926
vn 0.258819 0.000000 0.965926
vn 0.258819 0.000000 0.965926
vn 0.258819 0.000000 0.965926
vn 0.258819 0.000000 0.965926
vn 0.707107 0.000000 0.707106
vn 0.707107 0.000000 0.707106
vn 0.707107 0.000000 0.707106
vn 0.707107 0.000000 0.707106
vn 0.965926 0.000000 0.258819
vn 0.965926 0.000000 0.258819
vn 0.965926 0.000000 0.258819
vn 0.965926 0.000000 0.258819
vn 0.965926 0.000000 -0.258819
vn 0.965926 0.000000 -0.258819
vn 0.965926 0.000000 -0.258819
vn 0.965926 0.000000 -0.258819
vn 0.000000 -1.000000 -0.000000
vn 0.000000 -1.000000 0.000000
vn 0.000000 -1.000000 -0.000000
vn 0.000000 -1.000000 0.000000
vn 0.000000 -1.000000 0.000000
vn 0.000000 -1.000000 0.000001
vn 0.000000 -1.000000 0.000000
vn 0.000000 -1.000000 -0.000000
vn 0.000000 -1.000000 0.000000
vn 0.000000 -1.000000 0.000000
vn 0.000000 -1.000000 0.000000
vn 0.000000 -1.000000 -0.000001
vn 0.000000 -1.000000 0.000000
vn 0.000000 1.000000 0.000000
vn 0.000000 1.000000 0.000000
vn 0.000000 1.000000 0.000000
vn 0.000000 1.000000 0.000000
vn 0.000000 1.000000 0.000000
vn 0.000000 1.000000 0.000000
vn 0.000000 1.000000 0.000000
vn 0.000000 1.000000 0.000000
vn 0.000000 1.000000 0.000000
vn 0.000000 1.000000 0.000000
vn 0.000000 1.000000 0.000000
vn 0.000000 1.000000 0.000000
vn 0.000000 1.000000 0.000000
s off
g pCylinder17
usemtl initialShadingGroup
f 41/53/83 42/54/84 54/67/85 53/66/86
f 42/54/87 43/55/88 55/68/89 54/67/90
f 43/55/91 44/56/92 56/69/93 55/68/94
f 44/56/95 45/57/96 57/70/97 56/69/98
f 45/57/99 46/58/100 58/71/101 57/70/102
f 46/58/103 47/59/104 59/72/105 58/71/106
f 47/59/107 48/60/108 60/73/109 59/72/110
f 48/60/111 49/61/112 61/74/113 60/73/114
f 49/61/115 50/62/116 62/75/117 61/74/118
f 50/62/119 51/63/120 63/76/121 62/75/122
f 51/63/123 52/64/124 64/77/125 63/76/126
f 52/64/127 41/65/128 53/78/129 64/77/130
s 1
f 42/42/131 41/41/132 65/91/133
f 43/43/134 42/42/131 65/91/133
f 44/44/135 43/43/134 65/91/133
f 45/45/136 44/44/135 65/91/133
f 46/46/137 45/45/136 65/91/133
f 47/47/138 46/46/137 65/91/133
f 48/48/139 47/47/138 65/91/133
f 49/49/140 48/48/139 65/91/133
f 50/50/141 49/49/140 65/91/133
f 51/51/142 50/50/141 65/91/133
f 52/52/143 51/51/142 65/91/133
f 41/41/132 52/52/143 65/91/133
s 2
f 53/89/144 54/88/145 66/92/146
f 54/88/145 55/87/147 66/92/146
f 55/87/147 56/86/148 66/92/146
f 56/86/148 57/85/149 66/92/146
f 57/85/149 58/84/150 66/92/146
f 58/84/150 59/83/151 66/92/146
f 59/83/151 60/82/152 66/92/146
f 60/82/152 61/81/153 66/92/146
f 61/81/153 62/80/154 66/92/146
f 62/80/154 63/79/155 66/92/146
f 63/79/155 64/90/156 66/92/146
f 64/90/156 53/89/144 66/92/146
