# This file uses centimeters as units for non-parametric coordinates.

mtllib door.mtl
g default
v 133.813690 23.915051 -61.757721
v 133.813690 -19.563360 -61.757721
v 129.054199 -19.563360 -52.925659
v 129.054199 23.915051 -52.925659
v 121.931702 58.834129 -56.763931
v 126.691299 58.834129 -65.595978
v 105.977798 81.537178 -65.361389
v 110.737396 81.537178 -74.193481
v 133.813690 -78.859123 -61.757721
v 129.054199 -78.859123 -52.925659
v 26.490807 23.915051 -119.593597
v 21.731226 23.915051 -110.761597
v 21.731226 -19.563360 -110.761597
v 26.490807 -19.563360 -119.593597
v 33.613235 58.834129 -115.755402
v 28.853664 58.834129 -106.923302
v 49.567097 81.537178 -107.157898
v 44.807545 81.537178 -98.325844
v 21.731226 -78.859123 -110.761597
v 26.490807 -78.859123 -119.593597
v 88.665314 95.974731 -74.691063
v 62.120087 95.974731 -88.996178
v 66.879623 95.974716 -97.828247
v 93.424866 95.974716 -83.523117
v 80.152260 17.367960 -90.675667
v 80.152237 17.367960 -90.675682
v 80.152267 17.367960 -90.675667
v 75.392685 20.588680 -81.843613
v 75.392685 20.588671 -81.843613
v 75.392685 20.588680 -81.843613
v 75.392677 20.588671 -81.843620
v 75.392693 20.588680 -81.843597
v 75.392693 20.588671 -81.843597
v 75.392677 20.588680 -81.843620
v -28.240604 45.963692 -173.869003
v -28.240604 45.963692 -173.869003
v -28.240604 21.739201 -278.304810
v -28.240604 -21.739201 -278.304810
v -28.240604 79.070160 -263.992493
v -28.240604 116.739601 -231.162598
v -28.240604 -81.034973 -278.304810
v -28.240604 -81.034973 -173.869003
v -28.240604 -21.739201 -69.433220
v -28.240604 21.739201 -69.433220
v -28.240604 79.070160 -83.745506
v -28.240604 116.739700 -116.575401
v -28.240604 -81.034973 -69.433220
v -28.240604 139.211807 -158.791794
v -28.240604 139.211807 -188.946198
v -28.240604 -21.739201 -278.304810
v 15.237797 -21.739201 -278.304810
v -28.240604 21.739201 -278.304810
v 15.237797 21.739201 -278.304810
v -28.240604 21.739201 -234.826401
v 15.237797 21.739201 -234.826401
v -28.240604 -21.739201 -234.826401
v 15.237797 -21.739201 -234.826401
v -28.240604 79.070160 -263.992493
v 15.237797 79.070160 -263.992493
v 15.237797 56.658279 -226.735504
v -28.240604 56.658279 -226.735504
v -28.240604 116.739601 -231.162598
v 15.237797 116.739700 -231.162598
v 15.237797 79.361328 -208.612595
v -28.240604 79.361328 -208.612595
v -28.240604 -81.034973 -234.826401
v 15.237797 -81.034973 -234.826401
v 15.237797 -81.034973 -278.304810
v -28.240604 -81.034973 -278.304810
v -28.240604 -21.739201 -69.433220
v 15.237797 -21.739201 -69.433220
v -28.240604 21.739201 -69.433220
v 15.237797 21.739201 -69.433220
v -28.240604 21.739201 -112.911598
v 15.237797 21.739201 -112.911598
v -28.240604 -21.739201 -112.911598
v 15.237797 -21.739201 -112.911598
v -28.240604 79.070160 -83.745506
v 15.237797 79.070160 -83.745506
v 15.237797 56.658279 -121.002502
v -28.240604 56.658279 -121.002502
v -28.240604 116.739700 -116.575401
v 15.237797 116.739700 -116.575401
v 15.237797 79.361328 -139.125397
v -28.240604 79.361328 -139.125397
v -28.240604 -81.034973 -112.911598
v 15.237797 -81.034973 -112.911598
v 15.237797 -81.034973 -69.433220
v -28.240604 -81.034973 -69.433220
v -28.240604 139.211807 -188.946198
v -28.240604 139.211807 -158.791794
v 15.237797 139.211807 -188.946198
v 15.237797 139.211807 -158.791794
v 15.237797 93.798882 -188.946198
v 15.237797 93.798882 -158.791794
v -28.240604 93.798882 -188.946198
v -28.240604 93.798882 -158.791794
vt 0.210712 0.214424
vt 0.210814 0.228892
vt 0.148119 0.229334
vt 0.148017 0.214866
vt 0.262404 0.214059
vt 0.262506 0.228527
vt 0.304291 0.213764
vt 0.304393 0.228232
vt 0.062616 0.229937
vt 0.062514 0.215469
vt 0.511707 0.212301
vt 0.574401 0.211859
vt 0.574503 0.226326
vt 0.511809 0.226769
vt 0.460122 0.227133
vt 0.460020 0.212665
vt 0.418234 0.227429
vt 0.418132 0.212961
vt 0.659911 0.211255
vt 0.660013 0.225723
vt 0.339572 0.227984
vt 0.339471 0.213516
vt 0.382952 0.213209
vt 0.383054 0.227677
vt 0.598316 0.594933
vt 0.598316 0.278522
vt 0.624363 0.278522
vt 0.624363 0.594933
vt 0.018723 0.483955
vt 0.020371 0.388875
vt 0.150219 0.472359
vt 0.035979 0.560882
vt 0.150242 0.472347
vt 0.075850 0.610860
vt 0.150247 0.472373
vt 0.023766 0.260960
vt 0.283367 0.392949
vt 0.282787 0.485368
vt 0.150250 0.472367
vt 0.266058 0.560149
vt 0.150249 0.472372
vt 0.227529 0.609686
vt 0.285508 0.265777
vt 0.185144 0.641566
vt 0.119242 0.642166
vt 0.572150 0.394104
vt 0.571679 0.489825
vt 0.440185 0.481067
vt 0.440188 0.481041
vt 0.552404 0.566449
vt 0.440184 0.481071
vt 0.511415 0.615268
vt 0.440179 0.481069
vt 0.571546 0.265097
vt 0.307247 0.486336
vt 0.307784 0.393517
vt 0.440166 0.481035
vt 0.440174 0.481064
vt 0.322954 0.561262
vt 0.440176 0.481067
vt 0.360550 0.611138
vt 0.440177 0.481070
vt 0.307247 0.265353
vt 0.467555 0.645445
vt 0.402155 0.643348
vn 0.875662 0.102658 0.471887
vn 0.875662 0.102658 0.471886
vn 0.880314 0.000000 0.474391
vn 0.880314 0.000000 0.474391
vn 0.801290 0.414091 0.431813
vn 0.801290 0.414091 0.431813
vn 0.617061 0.713202 0.332533
vn 0.617061 0.713203 0.332533
vn 0.880314 0.000000 0.474391
vn 0.880314 0.000000 0.474391
vn -0.875659 0.102658 -0.471893
vn -0.880309 0.000000 -0.474400
vn -0.880309 0.000000 -0.474400
vn -0.875659 0.102657 -0.471893
vn -0.801291 0.414090 -0.431813
vn -0.801291 0.414090 -0.431813
vn -0.617062 0.713202 -0.332531
vn -0.617062 0.713202 -0.332531
vn -0.880309 0.000000 -0.474400
vn -0.880309 0.000000 -0.474400
vn 0.245025 0.960483 0.132042
vn 0.245025 0.960483 0.132042
vn -0.245025 0.960483 -0.132043
vn -0.245024 0.960483 -0.132043
vn 0.000000 -1.000000 0.000000
vn 0.000000 -1.000000 0.000000
vn 0.000000 -1.000000 0.000000
vn 0.000000 -1.000000 0.000000
vn 0.474397 -0.000000 -0.880311
vn 0.474397 0.000000 -0.880311
vn 0.474396 -0.000000 -0.880311
vn 0.474396 -0.000001 -0.880311
vn 0.474397 -0.000001 -0.880311
vn 0.474396 0.000000 -0.880312
vn 0.474396 -0.000000 -0.880311
vn 0.474396 -0.000000 -0.880311
vn 0.474396 0.000000 -0.880312
vn 0.474396 -0.000001 -0.880312
vn 0.474397 -0.000000 -0.880311
vn 0.474397 0.000000 -0.880311
vn 0.474396 -0.000000 -0.880311
vn 0.474396 -0.000000 -0.880311
vn 0.474396 0.000000 -0.880312
vn -0.474396 0.000000 0.880312
vn -0.474396 -0.000000 0.880312
vn -0.474396 -0.000000 0.880312
vn -0.474396 -0.000000 0.880311
vn -0.474396 -0.000000 0.880312
vn -0.474396 -0.000001 0.880312
vn -0.474397 0.000000 0.880311
vn -0.474397 0.000000 0.880311
vn -0.474396 -0.000000 0.880311
vn -0.474397 -0.000000 0.880311
vn -0.474397 0.000000 0.880311
vn -0.474397 -0.000000 0.880311
vn -0.474397 -0.000000 0.880311
vn -0.474396 -0.000000 0.880312
vn -0.474396 -0.000000 0.880312
vn -0.474397 0.000000 0.880311
vn -0.474397 0.000000 0.880311
vn -0.474396 -0.000000 0.880311
vn -0.474397 0.000000 0.880311
vn -0.474397 0.000000 0.880311
s 1
g _polySurface359pCube81
usemtl initialShadingGroup
f 1/1/1 4/2/2 3/3/3 2/4/4
f 4/2/2 1/1/1 6/5/5 5/6/6
f 5/6/6 6/5/5 8/7/7 7/8/8
f 2/4/4 3/3/3 10/9/9 9/10/10
f 11/11/11 14/12/12 13/13/13 12/14/14
f 12/14/14 16/15/15 15/16/16 11/11/11
f 16/15/15 18/17/17 17/18/18 15/16/16
f 14/12/12 20/19/19 19/20/20 13/13/13
f 21/21/21 24/22/22 23/23/23 22/24/24
f 7/8/8 8/7/7 24/22/22 21/21/21
f 18/17/17 22/24/24 23/23/23 17/18/18
s off
f 10/25/25 19/26/26 20/27/27 9/28/28
s 3
f 1/29/29 2/30/30 25/31/31
f 6/32/32 1/29/29 25/31/31 26/33/33
f 8/34/34 6/32/32 26/33/33 27/35/35
f 2/30/30 9/36/36 25/31/31
f 14/37/37 11/38/38 27/39/35
f 11/38/38 15/40/39 25/41/31 27/39/35
f 15/40/39 17/42/40 25/41/31
f 20/43/41 14/37/37 27/39/35
f 23/44/42 24/45/43 25/41/31
f 24/45/43 8/34/34 27/35/35 25/41/31
f 17/42/40 23/44/42 25/41/31
f 9/36/36 20/43/41 27/39/35 25/31/31
s 5
f 3/46/44 4/47/45 28/48/46 29/49/47
f 4/47/45 5/50/48 30/51/49 28/48/46
f 5/50/48 7/52/50 31/53/51 30/51/49
f 10/54/52 3/46/44 29/49/47
f 12/55/53 13/56/54 33/57/55 32/58/56
f 16/59/57 12/55/53 32/58/56 34/60/58
f 18/61/59 16/59/57 34/60/58 29/62/60
f 13/56/54 19/63/61 33/57/55
f 21/64/62 22/65/63 29/62/60
f 7/52/50 21/64/62 29/62/60 31/53/51
f 22/65/63 18/61/59 29/62/60
f 19/63/61 10/54/52 29/49/47 33/57/55
g default
v -21.739201 -21.739201 -278.304810
v -21.739201 21.739201 -278.304810
v 21.739201 21.739201 -278.304810
v 21.739201 -21.739201 -278.304810
v -21.739201 21.739201 -234.826401
v -21.739201 -21.739201 -234.826401
v 21.739201 -21.739201 -234.826401
v 21.739201 21.739201 -234.826401
v -21.739201 -81.034973 -234.826401
v -21.739201 -81.034973 -278.304810
v 21.739201 -81.034973 -278.304810
v 21.739201 -81.034973 -234.826401
v -21.739201 79.070160 -263.992493
v 21.739201 79.070160 -263.992493
v 21.739201 56.658279 -226.735504
v -21.739201 56.658279 -226.735504
v -21.739201 116.739601 -231.162598
v 21.739201 116.739700 -231.162598
v 21.739201 79.361328 -208.612595
v -21.739201 79.361328 -208.612595
v -21.739201 -21.739201 -69.433220
v 21.739201 -21.739201 -69.433220
v 21.739201 21.739201 -69.433220
v -21.739201 21.739201 -69.433220
v -21.739201 21.739201 -112.911598
v 21.739201 21.739201 -112.911598
v 21.739201 -21.739201 -112.911598
v -21.739201 -21.739201 -112.911598
v -21.739201 -81.034973 -112.911598
v 21.739201 -81.034973 -112.911598
v 21.739201 -81.034973 -69.433220
v -21.739201 -81.034973 -69.433220
v 21.739201 79.070160 -83.745506
v -21.739201 79.070160 -83.745506
v 21.739201 56.658279 -121.002502
v -21.739201 56.658279 -121.002502
v 21.739201 116.739700 -116.575401
v -21.739201 116.739700 -116.575401
v 21.739201 79.361328 -139.125397
v -21.739201 79.361328 -139.125397
v -21.739201 139.211807 -188.946198
v -21.739201 139.211807 -158.791794
v 21.739201 139.211807 -158.791794
v 21.739201 139.211807 -188.946198
v -21.739201 93.798882 -188.946198
v -21.739201 93.798882 -158.791794
v 21.739201 93.798882 -158.791794
v 21.739201 93.798882 -188.946198
vt 0.724877 0.097936
vt 0.662179 0.098379
vt 0.661737 0.035681
vt 0.724435 0.035239
vt 0.233738 0.192783
vt 0.171041 0.193225
vt 0.170598 0.130528
vt 0.233296 0.130085
vt 0.742023 0.173007
vt 0.941218 0.173007
vt 0.941218 0.372203
vt 0.742023 0.372203
vt 0.974172 0.759148
vt 0.973079 0.821838
vt 0.910390 0.820745
vt 0.911483 0.758055
vt 0.397533 0.756131
vt 0.397595 0.818830
vt 0.334896 0.818893
vt 0.334834 0.756193
vt 0.576968 0.098980
vt 0.576526 0.036282
vt 0.951002 0.904141
vt 0.897846 0.870890
vt 0.284985 0.129721
vt 0.285427 0.192419
vt 0.409313 0.869175
vt 0.355617 0.901548
vt 0.504913 0.099488
vt 0.504470 0.036790
vt 0.902719 0.957630
vt 0.871144 0.903169
vt 0.326875 0.129425
vt 0.327318 0.192123
vt 0.435480 0.901888
vt 0.403015 0.955823
vt 0.085533 0.193829
vt 0.085091 0.131131
vt 0.912973 0.672559
vt 0.975663 0.673652
vt 0.809942 0.034635
vt 0.810384 0.097333
vt 0.334749 0.670684
vt 0.397448 0.670622
vt 0.103533 0.102319
vt 0.103091 0.039622
vt 0.165788 0.039179
vt 0.166231 0.101877
vt 0.534744 0.190660
vt 0.534301 0.127962
vt 0.596999 0.127520
vt 0.597441 0.190218
vt 0.703649 0.416392
vt 0.902844 0.416392
vt 0.902844 0.615587
vt 0.703649 0.615587
vt 0.673009 0.753897
vt 0.735699 0.754990
vt 0.734606 0.817680
vt 0.671916 0.816587
vt 0.573343 0.755956
vt 0.636043 0.755894
vt 0.636105 0.818593
vt 0.573406 0.818656
vt 0.250999 0.038578
vt 0.251442 0.101276
vt 0.745394 0.868232
vt 0.691111 0.899610
vt 0.483055 0.191024
vt 0.482613 0.128327
vt 0.615547 0.901290
vt 0.561788 0.869023
vt 0.323055 0.038070
vt 0.323498 0.100768
vt 0.770954 0.901422
vt 0.737500 0.954750
vt 0.441164 0.191320
vt 0.440722 0.128622
vt 0.568258 0.955659
vt 0.535686 0.901789
vt 0.682506 0.126917
vt 0.682948 0.189615
vt 0.674500 0.668401
vt 0.737189 0.669494
vt 0.018026 0.102922
vt 0.017584 0.040225
vt 0.573258 0.670447
vt 0.635958 0.670385
vt 0.435947 0.099974
vt 0.392463 0.100281
vt 0.392021 0.037583
vt 0.435505 0.037277
vt 0.507411 0.988126
vt 0.463926 0.988169
vt 0.463861 0.922680
vt 0.507346 0.922637
vt 0.841284 0.988971
vt 0.797805 0.988213
vt 0.798947 0.922733
vt 0.842425 0.923491
vt 0.362057 0.129177
vt 0.405541 0.128870
vt 0.405983 0.191568
vt 0.362499 0.191875
vn 0.000000 0.000000 -1.000000
vn 0.000000 0.140565 -0.990072
vn 0.000000 0.140565 -0.990072
vn 0.000000 0.000000 -1.000000
vn 0.000000 -0.102658 0.994717
vn 0.000000 0.000000 1.000000
vn 0.000000 0.000000 1.000000
vn 0.000000 -0.102658 0.994717
vn 0.000000 -1.000000 0.000000
vn 0.000000 -1.000000 0.000000
vn 0.000000 -1.000000 0.000000
vn 0.000000 -1.000000 0.000000
vn 1.000000 0.000000 0.000000
vn 1.000000 0.000000 0.000000
vn 1.000000 0.000000 0.000000
vn 1.000000 0.000000 0.000000
vn -1.000000 0.000000 0.000000
vn -1.000000 0.000000 0.000000
vn -1.000000 0.000000 0.000000
vn -1.000000 0.000000 0.000000
vn -0.000001 0.444511 -0.895773
vn -0.000001 0.444511 -0.895773
vn 1.000000 0.000000 0.000000
vn 1.000000 0.000000 0.000000
vn 0.000000 -0.414090 0.910236
vn 0.000000 -0.414090 0.910236
vn -1.000000 0.000000 0.000000
vn -1.000000 0.000000 0.000000
vn -0.000001 0.780338 -0.625358
vn -0.000001 0.780338 -0.625358
vn 1.000000 -0.000000 0.000000
vn 1.000000 -0.000000 0.000000
vn 0.000000 -0.713202 0.700959
vn 0.000000 -0.713202 0.700959
vn -1.000000 -0.000000 0.000000
vn -1.000000 -0.000000 0.000000
vn 0.000000 0.000000 1.000000
vn 0.000000 0.000000 1.000000
vn 1.000000 0.000000 0.000000
vn 1.000000 0.000000 0.000000
vn 0.000000 0.000000 -1.000000
vn 0.000000 0.000000 -1.000000
vn -1.000000 0.000000 0.000000
vn -1.000000 0.000000 0.000000
vn 0.000000 0.000000 1.000000
vn 0.000000 0.000000 1.000000
vn 0.000000 0.140564 0.990072
vn 0.000000 0.140564 0.990072
vn 0.000000 -0.102658 -0.994717
vn 0.000000 -0.102658 -0.994717
vn 0.000000 0.000000 -1.000000
vn 0.000000 0.000000 -1.000000
vn 0.000000 -1.000000 0.000000
vn 0.000000 -1.000000 0.000000
vn 0.000000 -1.000000 0.000000
vn 0.000000 -1.000000 0.000000
vn 1.000000 0.000000 0.000000
vn 1.000000 0.000000 0.000000
vn 1.000000 -0.000000 0.000000
vn 1.000000 -0.000000 0.000000
vn -1.000000 0.000000 0.000000
vn -1.000000 0.000000 0.000000
vn -1.000000 -0.000000 0.000000
vn -1.000000 -0.000000 0.000000
vn 0.000000 0.444510 0.895774
vn 0.000000 0.444510 0.895774
vn 1.000000 -0.000000 0.000000
vn 1.000000 -0.000000 0.000000
vn 0.000000 -0.414090 -0.910236
vn 0.000000 -0.414090 -0.910236
vn -1.000000 -0.000000 0.000000
vn -1.000000 -0.000000 0.000000
vn 0.000000 0.780338 0.625358
vn 0.000000 0.780338 0.625358
vn 1.000000 0.000000 0.000000
vn 1.000000 0.000000 0.000000
vn 0.000000 -0.713202 -0.700959
vn 0.000000 -0.713202 -0.700959
vn -1.000000 0.000000 0.000000
vn -1.000000 0.000000 0.000000
vn 0.000000 0.000000 -1.000000
vn 0.000000 0.000000 -1.000000
vn 1.000000 0.000000 0.000000
vn 1.000000 0.000000 0.000000
vn 0.000000 0.000000 1.000000
vn 0.000000 0.000000 1.000000
vn -1.000000 0.000000 0.000000
vn -1.000000 0.000000 0.000000
vn -0.000001 0.955018 -0.296547
vn 0.000000 0.955019 0.296546
vn 0.000000 0.955019 0.296546
vn -0.000001 0.955018 -0.296547
vn -1.000000 0.000000 0.000000
vn -1.000000 -0.000000 0.000000
vn -1.000000 -0.000000 0.000000
vn -1.000000 0.000000 0.000000
vn 1.000000 -0.000000 0.000000
vn 1.000000 0.000000 0.000000
vn 1.000000 0.000000 0.000000
vn 1.000000 -0.000000 0.000000
vn 0.000000 -0.960483 0.278338
vn 0.000000 -0.960483 -0.278338
vn 0.000000 -0.960483 -0.278338
vn 0.000000 -0.960483 0.278338
s 1
g _pCube81polySurface358polySurface360
usemtl initialShadingGroup
f 98/66/64 99/67/65 100/68/66 101/69/67
s 2
f 102/70/68 103/71/69 104/72/70 105/73/71
s off
f 106/74/72 107/75/73 108/76/74 109/77/75
s 3
f 101/78/76 100/79/77 105/80/78 104/81/79
s 4
f 103/82/80 102/83/81 99/84/82 98/85/83
s 1
f 99/67/65 110/86/84 111/87/85 100/68/66
s 3
f 100/79/77 111/88/86 112/89/87 105/80/78
s 2
f 105/73/71 112/90/88 113/91/89 102/70/68
s 4
f 102/83/81 113/92/90 110/93/91 99/84/82
s 1
f 110/86/84 114/94/92 115/95/93 111/87/85
s 3
f 111/88/86 115/96/94 116/97/95 112/89/87
s 2
f 112/90/88 116/98/96 117/99/97 113/91/89
s 4
f 113/92/90 117/100/98 114/101/99 110/93/91
s 2
f 103/71/69 106/102/100 109/103/101 104/72/70
s 3
f 104/81/79 109/104/102 108/105/103 101/78/76
s 1
f 101/69/67 108/106/104 107/107/105 98/66/64
s 4
f 98/85/83 107/108/106 106/109/107 103/82/80
s 1
f 118/110/108 119/111/109 120/112/110 121/113/111
s 2
f 122/114/112 123/115/113 124/116/114 125/117/115
s off
f 126/118/116 127/119/117 128/120/118 129/121/119
s 3
f 119/122/120 124/123/121 123/124/122 120/125/123
s 4
f 125/126/124 118/127/125 121/128/126 122/129/127
s 1
f 121/113/111 120/112/110 130/130/128 131/131/129
s 3
f 120/125/123 123/124/122 132/132/130 130/133/131
s 2
f 123/115/113 122/114/112 133/134/132 132/135/133
s 4
f 122/129/127 121/128/126 131/136/134 133/137/135
s 1
f 131/131/129 130/130/128 134/138/136 135/139/137
s 3
f 130/133/131 132/132/130 136/140/138 134/141/139
s 2
f 132/135/133 133/134/132 137/142/140 136/143/141
s 4
f 133/137/135 131/136/134 135/144/142 137/145/143
s 2
f 125/117/115 124/116/114 127/146/144 126/147/145
s 3
f 124/123/121 119/122/120 128/148/146 127/149/147
s 1
f 119/111/109 118/110/108 129/150/148 128/151/149
s 4
f 118/127/125 125/126/124 126/152/150 129/153/151
s 1
f 138/154/152 139/155/153 140/156/154 141/157/155
s 4
f 139/158/156 138/159/157 142/160/158 143/161/159
s 3
f 141/162/160 140/163/161 144/164/162 145/165/163
s 2
f 145/166/164 144/167/165 143/168/166 142/169/167
s 1
f 114/94/92 138/154/152 141/157/155 115/95/93
s 3
f 115/96/94 141/162/160 145/165/163 116/97/95
s 2
f 116/98/96 145/166/164 142/169/167 117/99/97
s 4
f 117/100/98 142/160/158 138/159/157 114/101/99
s 1
f 135/139/137 134/138/136 140/156/154 139/155/153
s 3
f 134/141/139 136/140/138 144/164/162 140/163/161
s 2
f 136/143/141 137/142/140 143/168/166 144/167/165
s 4
f 137/145/143 135/144/142 139/158/156 143/161/159
g default
v -21.739201 45.963692 -173.869003
v -21.739201 45.963692 -173.869003
v -21.739201 21.739201 -278.304810
v -21.739201 -21.739201 -278.304810
v -21.739201 79.070160 -263.992493
v -21.739201 116.739601 -231.162598
v -21.739201 -81.034973 -278.304810
v -21.739201 -81.034973 -173.869003
v -21.739201 -21.739201 -69.433220
v -21.739201 21.739201 -69.433220
v -21.739201 79.070160 -83.745506
v -21.739201 116.739700 -116.575401
v -21.739201 -81.034973 -69.433220
v -21.739201 139.211807 -158.791794
v -21.739201 139.211807 -188.946198
vt 0.167154 0.853310
vt 0.167140 0.853306
vt 0.016897 0.822811
vt 0.016051 0.759561
vt 0.039035 0.905165
vt 0.086770 0.957846
vt 0.015266 0.673241
vt 0.168689 0.671263
vt 0.319686 0.761435
vt 0.318057 0.824155
vt 0.295573 0.905518
vt 0.248197 0.957666
vt 0.321917 0.675309
vt 0.188844 0.988859
vt 0.146530 0.988981
vn -1.000000 0.000000 0.000000
vn -1.000000 -0.000000 0.000000
vn -1.000000 -0.000000 0.000000
vn -1.000000 0.000000 0.000000
vn -1.000000 0.000000 0.000000
vn -1.000000 0.000000 0.000000
vn -1.000000 0.000000 0.000000
vn -1.000000 0.000000 0.000000
vn -1.000000 0.000000 0.000000
vn -1.000000 0.000000 0.000000
vn -1.000000 0.000000 0.000000
vn -1.000000 0.000000 0.000000
vn -1.000000 0.000000 0.000000
vn -1.000000 0.000000 0.000000
vn -1.000000 0.000000 0.000000
s 1
g _pCube81polySurface361polySurface358
usemtl initialShadingGroup
f 146/170/168 147/171/169 148/172/170 149/173/171
f 147/171/169 150/174/172 148/172/170
f 147/171/169 151/175/173 150/174/172
f 149/173/171 152/176/174 153/177/175 146/170/168
f 146/170/168 154/178/176 155/179/177 147/171/169
f 147/171/169 155/179/177 156/180/178
f 147/171/169 156/180/178 157/181/179
f 154/178/176 146/170/168 153/177/175 158/182/180
f 159/183/181 160/184/182 147/171/169
f 147/171/169 160/184/182 151/175/173
f 147/171/169 157/181/179 159/183/181
