# This file uses centimeters as units for non-parametric coordinates.

mtllib 1.mtl
g default
v -220.000305 97.909958 -36.516350
v -218.074402 98.149391 -8.893860
v -218.462997 97.308067 -9.403996
v -220.299805 97.084831 -35.925991
v -214.007797 72.716980 -6.923764
v -218.330704 100.823997 -6.986815
v -220.231598 100.529099 -6.828662
v -215.908600 72.422020 -6.765600
v -222.466995 100.233398 -38.276348
v -218.142303 72.388298 -38.217381
v -220.566193 100.528297 -38.434502
v -216.241394 72.683273 -38.375561
v -220.240799 99.022263 -37.331261
v -216.388901 74.221680 -37.278751
v -216.873703 74.146393 -37.238392
v -220.725601 98.947090 -37.290920
v -214.260696 74.157860 -7.791457
v -216.356903 73.887527 -37.516949
v -216.841705 73.812317 -37.476601
v -214.745605 74.082642 -7.751121
v -214.331406 74.484993 -8.031076
v -218.183304 99.285561 -8.083724
v -218.668106 99.210388 -8.043379
v -214.816193 74.409698 -7.990759
v -220.311295 99.349426 -37.570862
v -218.215195 99.619713 -7.845493
v -218.700195 99.544502 -7.805146
v -220.796204 99.274139 -37.530521
v -215.343597 76.958267 -9.857118
v -217.100204 76.749580 -35.386749
v -217.681900 76.659302 -35.338329
v -215.925400 76.867989 -9.808689
v -214.571793 75.597328 -8.846007
v -216.497696 75.357887 -36.468601
v -217.033798 76.055649 -35.881470
v -215.196793 76.278923 -9.359377
v -218.396500 96.614212 -9.898790
v -218.978195 96.524010 -9.850402
v -220.153000 96.405540 -35.428329
v -220.734695 96.315338 -35.379921
v -221.893707 72.549759 -15.942810
v -222.408401 72.587982 -15.909940
v -220.571594 88.049721 -31.351410
v -220.056900 88.011459 -31.384340
v -219.652802 90.621132 -18.643141
v -220.167603 90.659431 -18.610291
v -220.145996 89.589149 -16.545080
v -219.631302 89.550850 -16.577950
v -222.018097 72.690178 -11.089810
v -221.503296 72.651894 -11.122730
v -221.694397 72.601181 -13.459870
v -222.209106 72.639473 -13.426940
vt 0.744896 0.003906
vt 0.744896 0.674666
vt 0.718750 0.674666
vt 0.718750 0.003906
vt 0.703125 0.933492
vt 0.703125 0.698091
vt 0.719102 0.698091
vt 0.719102 0.933492
vt 0.398438 0.017990
vt 0.456547 0.017990
vt 0.456547 0.082713
vt 0.398438 0.082713
vt 0.746519 0.698317
vt 0.746519 0.932646
vt 0.730469 0.932646
vt 0.730469 0.698317
vt 0.003906 0.003906
vt 0.014698 0.003906
vt 0.014698 0.180204
vt 0.003906 0.180204
vt 0.023438 0.003906
vt 0.034229 0.003906
vt 0.034229 0.180195
vt 0.023438 0.180195
vt 0.847656 0.624372
vt 0.847656 0.003906
vt 0.859826 0.003906
vt 0.859826 0.624372
vt 0.625452 0.003906
vt 0.625452 0.740624
vt 0.613281 0.740624
vt 0.613281 0.003906
vt 0.883263 0.003906
vt 0.883263 0.624371
vt 0.871094 0.624371
vt 0.871094 0.003906
vt 0.602017 0.003906
vt 0.602017 0.740622
vt 0.589844 0.740622
vt 0.589844 0.003906
vt 0.766079 0.003906
vt 0.766079 0.640914
vt 0.753906 0.640914
vt 0.753906 0.003906
vt 0.789515 0.003906
vt 0.789515 0.640914
vt 0.777344 0.640914
vt 0.777344 0.003906
vt 0.672325 0.003906
vt 0.672325 0.728770
vt 0.660156 0.728770
vt 0.660156 0.003906
vt 0.648888 0.003906
vt 0.648888 0.728773
vt 0.636719 0.728773
vt 0.636719 0.003906
vt 0.815384 0.003906
vt 0.815384 0.636555
vt 0.800781 0.636555
vt 0.800781 0.003906
vt 0.683594 0.674669
vt 0.683594 0.003906
vt 0.709738 0.003906
vt 0.709738 0.674669
vt 0.929688 0.548672
vt 0.929688 0.003906
vt 0.955819 0.003906
vt 0.955819 0.548672
vt 0.920664 0.003906
vt 0.920664 0.548672
vt 0.894531 0.548672
vt 0.894531 0.003906
vt 0.979447 0.003906
vt 0.979447 0.495662
vt 0.964844 0.495662
vt 0.964844 0.003906
vt 0.979445 0.503475
vt 0.979445 0.995230
vt 0.964844 0.995230
vt 0.964844 0.503475
vt 0.838820 0.003906
vt 0.838820 0.636552
vt 0.824219 0.636552
vt 0.824219 0.003906
vt 0.937500 0.556485
vt 0.944217 0.556485
vt 0.944217 0.841315
vt 0.937500 0.841315
vt 0.078125 0.003906
vt 0.102393 0.003906
vt 0.102393 0.113049
vt 0.078125 0.113049
vt 0.636719 0.736585
vt 0.644153 0.736585
vt 0.644153 0.993224
vt 0.636719 0.993224
vt 0.066769 0.226494
vt 0.042969 0.226494
vt 0.042969 0.111841
vt 0.066769 0.111841
vt 0.042969 0.003906
vt 0.066769 0.003906
vt 0.217312 0.020458
vt 0.229856 0.020458
vt 0.229856 0.122806
vt 0.217312 0.122806
vt 0.175781 0.020458
vt 0.175781 0.122806
vt 0.250270 0.021860
vt 0.291358 0.021860
vt 0.291358 0.124559
vt 0.250270 0.124559
vt 0.238281 0.021860
vt 0.238281 0.124559
vt 0.652344 0.736585
vt 0.662615 0.736585
vt 0.662615 0.994976
vt 0.652344 0.994976
vt 0.567286 0.008188
vt 0.560915 0.240421
vt 0.554945 0.235933
vt 0.561116 0.012399
vt 0.381171 0.231931
vt 0.375000 0.236140
vt 0.381371 0.003906
vt 0.387343 0.008395
vt 0.112506 0.084694
vt 0.112506 0.178070
vt 0.111539 0.178070
vt 0.111539 0.084694
vt 0.111539 0.258406
vt 0.112506 0.258406
vt 0.112506 0.004358
vt 0.111539 0.004358
vt 0.366388 0.008651
vt 0.359862 0.255626
vt 0.350432 0.248544
vt 0.356650 0.015303
vt 0.158176 0.244229
vt 0.148438 0.250884
vt 0.154964 0.003906
vt 0.164395 0.010990
vt 0.927196 0.684487
vt 0.923962 0.955316
vt 0.913665 0.947806
vt 0.916776 0.691823
vt 0.692330 0.945957
vt 0.679688 0.953281
vt 0.685131 0.682481
vt 0.695429 0.689989
vt 0.013855 0.265720
vt 0.576853 0.265720
vt 0.576853 0.990017
vt 0.013855 0.990017
vn 0.921567 -0.383433 -0.060766
vn 0.921567 -0.383433 -0.060766
vn 0.921567 -0.383433 -0.060766
vn 0.921567 -0.383433 -0.060766
vn 0.080654 0.014641 0.996635
vn 0.080654 0.014641 0.996635
vn 0.080654 0.014641 0.996635
vn 0.080654 0.014641 0.996635
vn -0.985807 -0.152205 0.070840
vn -0.985807 -0.152205 0.070840
vn -0.985807 -0.152205 0.070840
vn -0.985807 -0.152205 0.070840
vn -0.080656 -0.014637 -0.996635
vn -0.080656 -0.014637 -0.996635
vn -0.080656 -0.014637 -0.996635
vn -0.080656 -0.014637 -0.996635
vn 0.152538 -0.988249 -0.009774
vn 0.152538 -0.988249 -0.009774
vn 0.152538 -0.988249 -0.009774
vn 0.152538 -0.988249 -0.009774
vn -0.153194 0.988195 0.001598
vn -0.153194 0.988195 0.001598
vn -0.153194 0.988195 0.001598
vn -0.153194 0.988195 0.001598
vn -0.080675 -0.014640 -0.996633
vn -0.080675 -0.014640 -0.996633
vn -0.080675 -0.014640 -0.996633
vn -0.080675 -0.014640 -0.996633
vn -0.153154 0.988201 0.001814
vn -0.153154 0.988201 0.001814
vn -0.153154 0.988201 0.001814
vn -0.153154 0.988201 0.001814
vn 0.080643 0.014640 0.996636
vn 0.080643 0.014640 0.996636
vn 0.080643 0.014640 0.996636
vn 0.080643 0.014640 0.996636
vn 0.153207 -0.988192 -0.001816
vn 0.153207 -0.988192 -0.001816
vn 0.153207 -0.988192 -0.001816
vn 0.153207 -0.988192 -0.001816
vn -0.080648 -0.014641 -0.996635
vn -0.080648 -0.014641 -0.996635
vn -0.080648 -0.014641 -0.996635
vn -0.080648 -0.014641 -0.996635
vn 0.080663 0.014638 0.996634
vn 0.080663 0.014638 0.996634
vn 0.080663 0.014638 0.996634
vn 0.080663 0.014638 0.996634
vn -0.153081 0.988212 0.001872
vn -0.153081 0.988212 0.001872
vn -0.153081 0.988212 0.001872
vn -0.153081 0.988212 0.001872
vn 0.153313 -0.988176 -0.001888
vn 0.153313 -0.988176 -0.001888
vn 0.153313 -0.988176 -0.001888
vn 0.153313 -0.988176 -0.001888
vn -0.153163 0.988198 0.002460
vn -0.153163 0.988198 0.002460
vn -0.153163 0.988198 0.002460
vn -0.153163 0.988198 0.002460
vn 0.762198 0.644697 -0.058479
vn 0.762198 0.644697 -0.058479
vn 0.762198 0.644697 -0.058479
vn 0.762198 0.644697 -0.058479
vn 0.698072 0.106918 -0.708000
vn 0.698072 0.106918 -0.708000
vn 0.698072 0.106918 -0.708000
vn 0.698072 0.106918 -0.708000
vn 0.802586 0.125883 0.583103
vn 0.802586 0.125883 0.583103
vn 0.802586 0.125883 0.583103
vn 0.802586 0.125883 0.583103
vn -0.080665 -0.014642 -0.996634
vn -0.080665 -0.014642 -0.996634
vn -0.080665 -0.014642 -0.996634
vn -0.080665 -0.014642 -0.996634
vn 0.080678 0.014639 0.996633
vn 0.080678 0.014639 0.996633
vn 0.080678 0.014639 0.996633
vn 0.080678 0.014639 0.996633
vn 0.153032 -0.988218 -0.002452
vn 0.153032 -0.988218 -0.002452
vn 0.153032 -0.988218 -0.002452
vn 0.153032 -0.988218 -0.002452
vn -0.097203 -0.697482 -0.709980
vn -0.097203 -0.697482 -0.709980
vn -0.097203 -0.697482 -0.709980
vn -0.097203 -0.697482 -0.709980
vn 0.094989 0.884244 0.457264
vn 0.094989 0.884244 0.457264
vn 0.094989 0.884244 0.457264
vn 0.094989 0.884244 0.457264
vn 0.082921 0.297821 0.951014
vn 0.082921 0.297821 0.951014
vn 0.082921 0.297821 0.951014
vn 0.082921 0.297821 0.951014
vn -0.072411 -0.997023 0.026475
vn -0.072411 -0.997023 0.026475
vn -0.072401 -0.997010 0.027004
vn -0.072401 -0.997010 0.026993
vn -0.072401 -0.997010 0.026993
vn -0.072401 -0.997010 0.027004
vn -0.072391 -0.996996 0.027554
vn -0.072391 -0.996996 0.027554
vn 0.991651 -0.126647 -0.024283
vn 0.987731 -0.134749 -0.078933
vn 0.987731 -0.134749 -0.078933
vn 0.991213 -0.128011 -0.033308
vn 0.991930 -0.125593 -0.017358
vn 0.991651 -0.126647 -0.024283
vn 0.991213 -0.128011 -0.033308
vn 0.991930 -0.125593 -0.017358
vn -0.991651 0.126642 0.024274
vn -0.991931 0.125590 0.017352
vn -0.991931 0.125590 0.017352
vn -0.991215 0.128005 0.033294
vn -0.987735 0.134738 0.078899
vn -0.991651 0.126642 0.024274
vn -0.991215 0.128005 0.033294
vn -0.987735 0.134738 0.078899
vn 0.059783 0.977536 -0.202114
vn 0.059783 0.977536 -0.202114
vn 0.059783 0.977536 -0.202114
vn 0.059783 0.977536 -0.202114
vn 0.985559 0.152906 -0.072749
vn 0.985561 0.152908 -0.072722
vn 0.985446 0.152889 -0.074299
vn 0.985447 0.152887 -0.074292
vn 0.985446 0.152899 -0.074290
vn 0.985446 0.152889 -0.074299
vn 0.985561 0.152908 -0.072722
vn 0.985557 0.152919 -0.072749
vn 0.985559 0.152918 -0.072729
vn 0.985559 0.152906 -0.072749
vn 0.985447 0.152887 -0.074292
vn 0.985445 0.152896 -0.074308
vn 0.985445 0.152896 -0.074308
vn 0.985446 0.152899 -0.074290
vn 0.985557 0.152919 -0.072749
vn 0.985559 0.152918 -0.072729
vn 0.985455 0.152972 -0.074013
vn 0.985459 0.152973 -0.073957
vn 0.985357 0.152941 -0.075366
vn 0.985354 0.152940 -0.075410
vn 0.985367 0.152885 -0.075358
vn 0.985357 0.152941 -0.075366
vn 0.985459 0.152973 -0.073957
vn 0.985468 0.152905 -0.073978
vn 0.985467 0.152905 -0.073996
vn 0.985455 0.152972 -0.074013
vn 0.985354 0.152940 -0.075410
vn 0.985362 0.152884 -0.075421
vn 0.985362 0.152884 -0.075421
vn 0.985367 0.152885 -0.075358
vn 0.985468 0.152905 -0.073978
vn 0.985467 0.152905 -0.073996
vn 0.985480 0.152962 -0.073698
vn 0.985484 0.152964 -0.073648
vn 0.985377 0.152934 -0.075118
vn 0.985375 0.152932 -0.075150
vn 0.985385 0.152887 -0.075108
vn 0.985377 0.152934 -0.075118
vn 0.985484 0.152964 -0.073648
vn 0.985491 0.152907 -0.073669
vn 0.985491 0.152905 -0.073679
vn 0.985480 0.152962 -0.073698
vn 0.985375 0.152932 -0.075150
vn 0.985382 0.152885 -0.075163
vn 0.985382 0.152885 -0.075163
vn 0.985385 0.152887 -0.075108
vn 0.985491 0.152907 -0.073669
vn 0.985491 0.152905 -0.073679
vn 0.985436 0.152927 -0.074357
vn 0.985968 0.152795 -0.067244
vn 0.986099 0.152711 -0.065491
vn 0.985336 0.152902 -0.075717
vn 0.987490 0.143555 -0.065241
vn 0.986099 0.152711 -0.065491
vn 0.985968 0.152795 -0.067244
vn 0.987728 0.140776 -0.067639
vn 0.987194 0.141496 -0.073663
vn 0.985436 0.152927 -0.074357
vn 0.985336 0.152902 -0.075717
vn 0.986803 0.143456 -0.075101
vn 0.986803 0.143456 -0.075101
vn 0.987490 0.143555 -0.065241
vn 0.987728 0.140776 -0.067639
vn 0.987194 0.141496 -0.073663
vn 0.985815 0.152961 -0.069077
vn 0.985815 0.152961 -0.069077
vn 0.985815 0.152961 -0.069077
vn 0.985815 0.152961 -0.069077
s off
g __Picture_Frame_6group40
usemtl initialShadingGroup
f 1/1/1 2/2/2 3/3/3 4/4/4
f 5/5/5 6/6/6 7/7/7 8/8/8
f 8/9/9 7/10/10 9/11/11 10/12/12
f 10/13/13 9/14/14 11/15/15 12/16/16
f 5/17/17 8/18/18 10/19/19 12/20/20
f 7/21/21 6/22/22 11/23/23 9/24/24
f 13/25/25 14/26/26 15/27/27 16/28/28
f 17/29/29 18/30/30 19/31/31 20/32/32
f 21/33/33 22/34/34 23/35/35 24/36/36
f 25/37/37 26/38/38 27/39/39 28/40/40
f 26/41/41 17/42/42 20/43/43 27/44/44
f 18/45/45 25/46/46 28/47/47 19/48/48
f 22/49/49 13/50/50 16/51/51 23/52/52
f 14/53/53 21/54/54 24/55/55 15/56/56
f 29/57/57 30/58/58 31/59/59 32/60/60
f 33/61/61 34/62/62 35/63/63 36/64/64
f 2/65/65 33/66/66 36/67/67 3/68/68
f 34/69/69 1/70/70 4/71/71 35/72/72
f 37/73/73 29/74/74 32/75/75 38/76/76
f 30/77/77 39/78/78 40/79/79 31/80/80
f 39/81/81 37/82/82 38/83/83 40/84/84
f 41/85/85 42/86/86 43/87/87 44/88/88
f 45/89/89 46/90/90 47/91/91 48/92/92
f 48/93/93 47/94/94 49/95/95 50/96/96
f 42/97/97 41/98/98 51/99/99 52/100/100
f 52/100/101 51/99/102 50/101/103 49/102/104
f 45/103/105 48/104/106 50/105/107 51/106/108
f 44/107/109 45/103/110 51/106/111 41/108/112
f 46/109/113 43/110/114 42/111/115 52/112/116
f 47/113/117 46/109/118 52/112/119 49/114/120
f 44/115/121 43/116/122 46/117/123 45/118/124
f 4/119/125 3/120/126 37/121/127 39/122/128
f 29/123/129 37/121/130 3/120/131 36/124/132
f 35/125/133 4/119/134 39/122/135 30/126/136
f 30/126/137 29/123/138 36/124/139 35/125/140
f 28/127/141 27/128/142 23/129/143 16/130/144
f 24/131/145 23/129/146 27/128/147 20/132/148
f 19/133/149 28/127/150 16/130/151 15/134/152
f 15/134/153 24/131/154 20/132/155 19/133/156
f 13/135/157 22/136/158 2/137/159 1/138/160
f 33/139/161 2/137/162 22/136/163 21/140/164
f 14/141/165 13/135/166 1/138/167 34/142/168
f 34/142/169 33/139/170 21/140/171 14/141/172
f 11/143/173 6/144/174 26/145/175 25/146/176
f 17/147/177 26/145/178 6/144/179 5/148/180
f 12/149/181 11/143/182 25/146/183 18/150/184
f 18/150/185 17/147/186 5/148/187 12/149/188
f 31/151/189 40/152/190 38/153/191 32/154/192
